<?xml version="1.0" encoding="UTF-8"?>
<svg version="1.1" xmlns="http://www.w3.org/2000/svg" width="500" height="500">
<path d="M0 0 C3.92993542 2.65042156 6.08786238 5.91304358 8.6875 9.8125 C9.05101562 9.26980469 9.41453125 8.72710937 9.7890625 8.16796875 C12.92170762 3.70997377 15.29721268 0.47104995 20.6875 -1.1875 C27.55535855 -2.0872692 32.09954765 -1.29293438 37.6875 2.8125 C41.71439841 7.1078583 41.85224286 11.26213816 41.7890625 16.90625 C41.67874417 18.97684021 41.34374856 20.84375433 40.6875 22.8125 C40.0275 22.8125 39.3675 22.8125 38.6875 22.8125 C38.44 23.410625 38.1925 24.00875 37.9375 24.625 C36.1121511 27.81936057 33.97041551 29.44247083 30.42578125 30.46484375 C23.81316821 31.24217185 19.4696757 30.06671965 13.6875 26.8125 C13.6875 26.1525 13.6875 25.4925 13.6875 24.8125 C13.0275 24.8125 12.3675 24.8125 11.6875 24.8125 C10.6975 22.5025 9.7075 20.1925 8.6875 17.8125 C8.35878906 18.60914063 8.35878906 18.60914063 8.0234375 19.421875 C5.7666753 24.44913389 3.85229316 27.37627681 -1.3125 29.8125 C-6.71110082 31.25479781 -11.39063 31.16816144 -16.51953125 28.875 C-19.61945527 27.03800799 -21.75699443 25.02408262 -23.3125 21.8125 C-24.67149424 16.31393778 -25.0832446 10.89219843 -22.3125 5.8125 C-15.88139051 -0.90303203 -8.98904834 -3.22248903 0 0 Z M-13.3125 9.4375 C-14.59542178 12.48443922 -14.72245912 14.53282701 -14.3125 17.8125 C-13.41014165 20.29355194 -13.41014165 20.29355194 -11.3125 21.8125 C-7.89240979 22.24001128 -5.48117275 22.41568593 -2.375 20.8125 C-0.6922439 17.64495911 -0.76781284 14.3211342 -1.3125 10.8125 C-1.9725 9.8225 -2.6325 8.8325 -3.3125 7.8125 C-8.74041006 7.06552654 -8.74041006 7.06552654 -13.3125 9.4375 Z M19.625 9.875 C18.4564599 13.53642564 18.88496875 16.0916733 19.6875 19.8125 C20.3475 19.8125 21.0075 19.8125 21.6875 19.8125 C21.6875 20.4725 21.6875 21.1325 21.6875 21.8125 C27.00920494 22.10812367 27.00920494 22.10812367 31.6875 19.8125 C32.68650309 16.03055972 32.94506854 13.6195481 31.75 9.875 C29.44575847 7.57075847 28.81886954 7.4008714 25.6875 7.1875 C22.55613046 7.4008714 21.92924153 7.57075847 19.625 9.875 Z " fill="#DBA446" transform="translate(150.3125,252.1875)"/>
<path d="M0 0 C-1 3 -1 3 -3.4921875 4.39453125 C-56.70732353 26.70064485 -119.65406214 28.33434497 -174.5625 11 C-175.57868408 10.68015137 -176.59486816 10.36030273 -177.6418457 10.03076172 C-183.85081495 7.97509997 -189.41233612 5.39944519 -195 2 C-195 1.67 -195 1.34 -195 1 C-190.52499638 0.81885293 -186.96998015 1.41433022 -182.6875 2.6875 C-125.77594648 18.60767634 -60.98958094 18.11236494 -4.4140625 0.69921875 C-2 0 -2 0 0 0 Z " fill="#D9A64D" transform="translate(347,288)"/>
<path d="M0 0 C1.25200195 -0.0309375 1.25200195 -0.0309375 2.52929688 -0.0625 C9.76624639 -0.10762517 15.04490161 1.35868567 21.1875 5.375 C25.68282157 10.07465437 27.62148131 14.76135284 28.4375 21.1875 C28.08235731 27.29840355 25.8322948 33.25278386 21.625 37.6875 C14.45355597 41.8569442 9.29853384 42.68101173 1.0625 42.5 C0.10085937 42.49484375 -0.86078125 42.4896875 -1.8515625 42.484375 C-8.90785714 42.40464286 -8.90785714 42.40464286 -10.0625 41.25 C-10.16360353 38.3046443 -10.20219279 35.3832244 -10.1953125 32.4375 C-10.19626923 31.55344482 -10.19722595 30.66938965 -10.19821167 29.75854492 C-10.19889351 27.88557871 -10.19703893 26.01261014 -10.19287109 24.13964844 C-10.18752289 21.26231612 -10.19281593 18.38513992 -10.19921875 15.5078125 C-10.19855797 13.69270799 -10.19727681 11.87760357 -10.1953125 10.0625 C-10.19733673 9.19584717 -10.19936096 8.32919434 -10.20144653 7.4362793 C-10.16749986 -1.15255514 -7.79684324 0.04665276 0 0 Z M-0.0625 10.25 C-0.14976223 12.03071246 -0.16949041 13.8148314 -0.16015625 15.59765625 C-0.15693359 16.67724609 -0.15371094 17.75683594 -0.15039062 18.86914062 C-0.14201172 20.00544922 -0.13363281 21.14175781 -0.125 22.3125 C-0.12048828 23.45267578 -0.11597656 24.59285156 -0.11132812 25.76757812 C-0.09949747 28.59510351 -0.0830141 31.4225264 -0.0625 34.25 C1.36683855 34.299229 2.79667161 34.33422541 4.2265625 34.36328125 C5.42079834 34.394823 5.42079834 34.394823 6.63916016 34.42700195 C10.19839278 34.15289492 12.2509922 32.4887565 14.9375 30.25 C15.47632813 29.82074219 16.01515625 29.39148438 16.5703125 28.94921875 C18.99468904 25.93606505 18.45855563 22.63400537 18.35546875 18.91796875 C18.10202417 15.99655483 18.10202417 15.99655483 15.75 13.1875 C11.97517024 10.58706172 4.07100336 6.11649664 -0.0625 10.25 Z " fill="#D9A548" transform="translate(254.0625,239.75)"/>
<path d="M0 0 C3.485625 -0.061875 6.97125 -0.12375 10.5625 -0.1875 C12.18973999 -0.22846802 12.18973999 -0.22846802 13.84985352 -0.27026367 C19.70459101 -0.32035019 23.86147717 0.11941663 29 3 C32.45239166 6.63409648 33.86994703 9.27679818 34.25 14.3125 C33.97505243 18.36797666 33.17121548 20.58808996 31 24 C28.8125 25.875 28.8125 25.875 27 27 C28.39394033 31.46060905 30.88204987 34.63232556 33.7578125 38.23046875 C35 40 35 40 35 42 C31.2495261 42.4138001 27.73458018 42.61368804 24 42 C21.56789144 40.03679373 20.18015101 37.88191572 19 35 C19 34.34 19 33.68 19 33 C18.34 33 17.68 33 17 33 C16.67 31.68 16.34 30.36 16 29 C13.69 29 11.38 29 9 29 C9 33.29 9 37.58 9 42 C6.03 42 3.06 42 0 42 C0 28.14 0 14.28 0 0 Z M9 9 C9 12.63 9 16.26 9 20 C10.93681161 20.08107583 12.8745934 20.13922475 14.8125 20.1875 C15.89144531 20.22230469 16.97039062 20.25710938 18.08203125 20.29296875 C20.98638041 20.25006303 20.98638041 20.25006303 22.85546875 18.64453125 C24.17723867 16.97868249 24.17723867 16.97868249 24.5 14.5 C24.2202717 11.86912953 24.2202717 11.86912953 22.125 10.1875 C17.62380021 8.47704408 13.80213332 8.80791467 9 9 Z " fill="#53595B" transform="translate(91,240)"/>
<path d="M0 0 C3.125 0.125 3.125 0.125 6.125 1.125 C6.785 0.795 7.445 0.465 8.125 0.125 C10.18359375 -0.04296875 10.18359375 -0.04296875 12.5625 -0.0625 C13.34496094 -0.07667969 14.12742188 -0.09085938 14.93359375 -0.10546875 C17.125 0.125 17.125 0.125 20.125 2.125 C22.40897032 1.77894389 24.05909037 1.15795481 26.125 0.125 C29.18420574 -0.29571592 32.0717746 -0.36014117 35.125 0.125 C37.88069447 2.30659145 39.56088747 3.99677494 41.125 7.125 C41.20971364 8.93841842 41.23221083 10.75494161 41.22265625 12.5703125 C41.21943359 13.64667969 41.21621094 14.72304688 41.21289062 15.83203125 C41.20032227 17.52392578 41.20032227 17.52392578 41.1875 19.25 C41.18298828 20.38566406 41.17847656 21.52132813 41.17382812 22.69140625 C41.16201615 25.50265638 41.14554507 28.3138023 41.125 31.125 C38.155 31.125 35.185 31.125 32.125 31.125 C31.63 20.73 31.63 20.73 31.125 10.125 C29.145 10.125 27.165 10.125 25.125 10.125 C24.23860611 12.78418166 23.94510975 14.60564641 23.80859375 17.35546875 C23.76669922 18.15791016 23.72480469 18.96035156 23.68164062 19.78710938 C23.64232422 20.62048828 23.60300781 21.45386719 23.5625 22.3125 C23.51931641 23.15748047 23.47613281 24.00246094 23.43164062 24.87304688 C23.32568482 26.95684433 23.2248498 29.04090103 23.125 31.125 C20.155 31.125 17.185 31.125 14.125 31.125 C14.06441406 29.69285156 14.00382812 28.26070313 13.94140625 26.78515625 C13.85701896 24.91925959 13.77237007 23.05337476 13.6875 21.1875 C13.64818359 20.24197266 13.60886719 19.29644531 13.56835938 18.32226562 C13.52646484 17.42314453 13.48457031 16.52402344 13.44140625 15.59765625 C13.40474854 14.76500244 13.36809082 13.93234863 13.33032227 13.07446289 C13.33132897 11.12161142 13.33132897 11.12161142 12.125 10.125 C9.625 9.95833333 9.625 9.95833333 7.125 10.125 C5.54096476 11.70903524 5.90525065 13.4021638 5.80859375 15.59765625 C5.76669922 16.49677734 5.72480469 17.39589844 5.68164062 18.32226562 C5.62266602 19.74055664 5.62266602 19.74055664 5.5625 21.1875 C5.51931641 22.13689453 5.47613281 23.08628906 5.43164062 24.06445312 C5.32520868 26.41778176 5.22456846 28.77137099 5.125 31.125 C2.155 31.125 -0.815 31.125 -3.875 31.125 C-3.89965622 26.87085377 -3.91783899 22.61674502 -3.92993164 18.36254883 C-3.93497101 16.91429927 -3.94180253 15.46605483 -3.95043945 14.01782227 C-3.96252247 11.94025412 -3.96823211 9.86275303 -3.97265625 7.78515625 C-3.97789307 6.53355713 -3.98312988 5.28195801 -3.98852539 3.99243164 C-3.83706475 0.1668289 -3.83706475 0.1668289 0 0 Z " fill="#DBA341" transform="translate(198.875,250.875)"/>
<path d="M0 0 C3.88047614 1.41204379 7.14532672 3.23797568 10.60546875 5.484375 C11.67216797 6.17273438 12.73886719 6.86109375 13.83789062 7.5703125 C14.94326172 8.28960937 16.04863281 9.00890625 17.1875 9.75 C32.24096769 19.54400707 32.24096769 19.54400707 48 28.125 C48.680625 28.46337891 49.36125 28.80175781 50.0625 29.15039062 C55.27023849 31.70987574 60.54714636 34.00761117 66 36 C65.505 36.99 65.505 36.99 65 38 C51.10961655 36.49017571 38.51401148 30.31549567 26.125 24.1875 C25.46209961 23.86217285 24.79919922 23.5368457 24.11621094 23.20166016 C20.54062757 21.40868897 17.13782298 19.49023958 13.78125 17.3125 C7.04887155 12.60934303 7.04887155 12.60934303 -0.69921875 11.265625 C-3.38135656 12.59561069 -5.59301251 14.21783522 -8 16 C-10.60595076 17.51398636 -13.27104583 18.90865203 -15.9375 20.3125 C-16.58920166 20.67335693 -17.24090332 21.03421387 -17.91235352 21.40600586 C-22.65631359 24 -22.65631359 24 -26 24 C-26 20.37 -26 16.74 -26 13 C-27.32 13 -28.64 13 -30 13 C-30 17.62 -30 22.24 -30 27 C-40.31836877 33.08952911 -50.11185344 36.42321267 -62 38 C-61 35 -61 35 -59.2421875 34.11328125 C-58.07042969 33.71689453 -58.07042969 33.71689453 -56.875 33.3125 C-54.91453869 32.54709493 -52.95652626 31.77540857 -51 31 C-50.36465332 30.75717285 -49.72930664 30.5143457 -49.07470703 30.26416016 C-44.23040071 28.34708131 -40.00684584 26.3706757 -36 23 C-34.47039107 18.19191187 -34.63483018 13.98389182 -35 9 C-34 8 -34 8 -31.3125 7.8671875 C-30.219375 7.86976563 -29.12625 7.87234375 -28 7.875 C-26.906875 7.87242187 -25.81375 7.86984375 -24.6875 7.8671875 C-22 8 -22 8 -21 9 C-20.95936168 10.66617115 -20.957279 12.33388095 -21 14 C-18.43499635 12.4206088 -15.87300002 10.8366632 -13.3125 9.25 C-12.2306543 8.58484375 -12.2306543 8.58484375 -11.12695312 7.90625 C-7.21372354 5.47611656 -3.52919771 2.97928327 0 0 Z " fill="#DFB567" transform="translate(153,198)"/>
<path d="M0 0 C2.64 0 5.28 0 8 0 C8.33 6.6 8.66 13.2 9 20 C9.66 20 10.32 20 11 20 C11 19.34 11 18.68 11 18 C11.66 18 12.32 18 13 18 C13.268125 17.401875 13.53625 16.80375 13.8125 16.1875 C15.04976376 13.90832992 15.9645814 12.59925747 18 11 C20.48046875 10.70703125 20.48046875 10.70703125 23.1875 10.8125 C24.08855469 10.83957031 24.98960937 10.86664063 25.91796875 10.89453125 C26.94857422 10.94673828 26.94857422 10.94673828 28 11 C28 14 28 14 26.03125 16.26171875 C25.1959375 17.06222656 24.360625 17.86273438 23.5 18.6875 C22.24703125 19.89986328 22.24703125 19.89986328 20.96875 21.13671875 C20.3190625 21.75160156 19.669375 22.36648438 19 23 C20.47485346 27.19945116 22.59485047 30.53737389 25.125 34.1875 C29 39.77935943 29 39.77935943 29 42 C25.48733728 42.63609586 22.48566369 42.86003313 19 42 C16.02234215 39.01710901 13.99378324 35.6970815 12 32 C10.515 32.495 10.515 32.495 9 33 C8.67 35.97 8.34 38.94 8 42 C1.84765625 42.09765625 1.84765625 42.09765625 0 42 C-1.89623202 40.10376798 -1.12897626 37.33629641 -1.13894653 34.8137207 C-1.1369223 33.94706787 -1.13489807 33.08041504 -1.1328125 32.1875 C-1.13376923 31.30344482 -1.13472595 30.41938965 -1.13571167 29.50854492 C-1.13639351 27.63557871 -1.13453893 25.76261014 -1.13037109 23.88964844 C-1.12502289 21.01231612 -1.13031593 18.13513992 -1.13671875 15.2578125 C-1.13605797 13.44270799 -1.13477681 11.62760357 -1.1328125 9.8125 C-1.13483673 8.94584717 -1.13686096 8.07919434 -1.13894653 7.1862793 C-1.11495009 1.11495009 -1.11495009 1.11495009 0 0 Z " fill="#575D60" transform="translate(317,240)"/>
<path d="M0 0 C2.97 0 5.94 0 9 0 C9 4.29 9 8.58 9 13 C10.32 12.34 11.64 11.68 13 11 C18.36367791 10.57431128 21.63678931 10.53509739 26 14 C28.29755922 17.44633882 28.23643976 18.71068391 28.1953125 22.76171875 C28.18886719 23.87998047 28.18242187 24.99824219 28.17578125 26.15039062 C28.15902344 27.31763672 28.14226562 28.48488281 28.125 29.6875 C28.11597656 30.86634766 28.10695313 32.04519531 28.09765625 33.25976562 C28.07406423 36.17338026 28.0411454 39.08658892 28 42 C25.03 42 22.06 42 19 42 C18.93941406 40.65164063 18.87882812 39.30328125 18.81640625 37.9140625 C18.73200578 36.1510304 18.64735753 34.38801016 18.5625 32.625 C18.52318359 31.73554688 18.48386719 30.84609375 18.44335938 29.9296875 C18.40146484 29.07890625 18.35957031 28.228125 18.31640625 27.3515625 C18.27974854 26.56604004 18.24309082 25.78051758 18.20532227 24.97119141 C18.109109 22.92476504 18.109109 22.92476504 17 21 C15.02 21 13.04 21 11 21 C9.85345518 23.29308963 9.80270883 24.79909656 9.68359375 27.3515625 C9.64169922 28.20234375 9.59980469 29.053125 9.55664062 29.9296875 C9.51732422 30.81914062 9.47800781 31.70859375 9.4375 32.625 C9.39431641 33.5221875 9.35113281 34.419375 9.30664062 35.34375 C9.20043285 37.56231239 9.09970041 39.78113565 9 42 C6.03 42 3.06 42 0 42 C0 28.14 0 14.28 0 0 Z " fill="#535A5E" transform="translate(347,240)"/>
<path d="M0 0 C4.78999748 3.73619803 5.79074939 7.52315559 6.8125 13.375 C6.915625 14.385625 7.01875 15.39625 7.125 16.4375 C1.96069646 18.73274602 -2.73313114 18.56842411 -8.265625 18.41015625 C-10.85865352 18.24690309 -10.85865352 18.24690309 -12.875 19.4375 C-8.98248944 22.03250704 -7.3619469 21.30340203 -2.875 20.4375 C-1.53582739 20.12846017 -0.19846746 19.80807089 1.125 19.4375 C1.125 20.0975 1.125 20.7575 1.125 21.4375 C2.445 22.0975 3.765 22.7575 5.125 23.4375 C3.15336717 26.31911721 1.61617636 28.18021714 -1.5 29.8125 C-7.71248989 30.96296109 -13.52606671 30.74306761 -18.875 27.125 C-21.40592022 25.19639012 -22.74093326 23.4210494 -23.875 20.4375 C-24.54502222 14.84359357 -24.62976125 9.97397826 -22.125 4.875 C-16.16902893 -1.577302 -8.2405841 -4.10275889 0 0 Z M-13.875 8.4375 C-13.875 9.0975 -13.875 9.7575 -13.875 10.4375 C-10.245 10.4375 -6.615 10.4375 -2.875 10.4375 C-3.205 9.4475 -3.535 8.4575 -3.875 7.4375 C-9.15699593 6.23761955 -9.15699593 6.23761955 -13.875 8.4375 Z " fill="#545A5C" transform="translate(306.875,252.5625)"/>
<path d="M0 0 C4.24866386 3.31395781 6.6402748 6.27576973 7.46875 11.6796875 C7.66907781 16.63780084 6.95405206 20.24269867 4.125 24.4375 C0.41601211 27.951278 -2.9577478 30.34804423 -8.16796875 30.5078125 C-13.37206764 30.24012814 -17.39860978 29.37704166 -21.4609375 26.0078125 C-24.72483123 22.38326753 -25.96539084 18.77681482 -25.77734375 13.91015625 C-24.87176006 8.06342662 -23.20546228 4.465837 -18.875 0.4375 C-13.53298768 -2.92033631 -5.58532458 -2.80469963 0 0 Z M-14.8125 8.5 C-16.49403731 11.56633274 -16.23551184 14.01263751 -15.875 17.4375 C-14.99170357 19.97708234 -14.99170357 19.97708234 -12.875 21.4375 C-8.92245604 22.01241549 -6.79558549 22.05122366 -3.4375 19.8125 C-1.40338664 16.72064769 -1.26894571 15.07382575 -1.875 11.4375 C-3.31161311 8.91743156 -3.31161311 8.91743156 -5.875 7.4375 C-9.33730815 7.01230426 -11.7097167 6.79847367 -14.8125 8.5 Z " fill="#585E61" transform="translate(402.875,252.5625)"/>
<path d="M0 0 C-3.82989106 1.80230168 -6.78121808 2.19622241 -11 2 C-11 2.66 -11 3.32 -11 4 C-12.20398438 4.06058594 -13.40796875 4.12117188 -14.6484375 4.18359375 C-16.22397077 4.26799732 -17.79949096 4.35264541 -19.375 4.4375 C-20.1690625 4.47681641 -20.963125 4.51613281 -21.78125 4.55664062 C-26.02601221 4.68893404 -26.02601221 4.68893404 -30 6 C-31.55772693 6.14005284 -33.12057531 6.22556016 -34.68359375 6.28125 C-35.61107422 6.31863281 -36.53855469 6.35601562 -37.49414062 6.39453125 C-38.46544922 6.42933594 -39.43675781 6.46414063 -40.4375 6.5 C-42.35301283 6.56891252 -44.26839246 6.64166348 -46.18359375 6.71875 C-47.03493896 6.74904297 -47.88628418 6.77933594 -48.76342773 6.81054688 C-51.17026598 6.9261853 -51.17026598 6.9261853 -54 8 C-56.33299825 8.03954234 -58.66708189 8.04401732 -61 8 C-61 8.66 -61 9.32 -61 10 C-60.34104736 9.96970703 -59.68209473 9.93941406 -59.00317383 9.90820312 C-34.8134746 8.80991939 -34.8134746 8.80991939 -24 9 C-24 9.33 -24 9.66 -24 10 C-38.39033017 12.10918561 -52.53320356 13.29896567 -67.0625 13.25 C-68.08380005 13.24842896 -68.08380005 13.24842896 -69.12573242 13.24682617 C-89.82068182 13.17931818 -89.82068182 13.17931818 -93 10 C-80.625 9.505 -80.625 9.505 -68 9 C-69.65376711 7.34623289 -71.80948364 7.36528792 -74.0625 6.9375 C-74.98160156 6.76089844 -75.90070313 6.58429688 -76.84765625 6.40234375 C-77.55792969 6.26957031 -78.26820313 6.13679688 -79 6 C-79 5.67 -79 5.34 -79 5 C-78.0519751 4.9906543 -77.1039502 4.98130859 -76.12719727 4.97167969 C-58.48737146 4.76982767 -41.01314633 4.23717059 -23.5 2 C-22.44644821 1.86555481 -22.44644821 1.86555481 -21.37161255 1.72839355 C-13.77432508 0.77440444 -13.77432508 0.77440444 -6.24414062 -0.5859375 C-3.81139891 -1.03479846 -2.32530854 -0.77510285 0 0 Z " fill="#DAAF66" transform="translate(316,297)"/>
<path d="M0 0 C1.65322266 0.01740234 1.65322266 0.01740234 3.33984375 0.03515625 C4.99693359 0.04869141 4.99693359 0.04869141 6.6875 0.0625 C7.54214844 0.07410156 8.39679688 0.08570313 9.27734375 0.09765625 C11.27734375 5.84765625 11.27734375 5.84765625 11.27734375 8.09765625 C9.95734375 8.09765625 8.63734375 8.09765625 7.27734375 8.09765625 C7.27734375 9.74765625 7.27734375 11.39765625 7.27734375 13.09765625 C8.92734375 13.09765625 10.57734375 13.09765625 12.27734375 13.09765625 C8.65234375 16.09765625 8.65234375 16.09765625 5.27734375 16.09765625 C5.27734375 12.46765625 5.27734375 8.83765625 5.27734375 5.09765625 C3.95734375 5.09765625 2.63734375 5.09765625 1.27734375 5.09765625 C1.27734375 9.71765625 1.27734375 14.33765625 1.27734375 19.09765625 C-9.04102502 25.18718536 -18.83450969 28.52086892 -30.72265625 30.09765625 C-29.72265625 27.09765625 -29.72265625 27.09765625 -27.96484375 26.2109375 C-27.18367188 25.94667969 -26.4025 25.68242187 -25.59765625 25.41015625 C-23.63719494 24.64475118 -21.67918251 23.87306482 -19.72265625 23.09765625 C-19.08730957 22.8548291 -18.45196289 22.61200195 -17.79736328 22.36181641 C-12.95305696 20.44473756 -8.72950209 18.46833195 -4.72265625 15.09765625 C-3.19304732 10.28956812 -3.35748643 6.08154807 -3.72265625 1.09765625 C-2.72265625 0.09765625 -2.72265625 0.09765625 0 0 Z " fill="#DCB774" transform="translate(121.72265625,205.90234375)"/>
<path d="M0 0 C8.66725664 -0.44070796 8.66725664 -0.44070796 13 3 C15.29755922 6.44633882 15.23643976 7.71068391 15.1953125 11.76171875 C15.18886719 12.87998047 15.18242187 13.99824219 15.17578125 15.15039062 C15.15902344 16.31763672 15.14226562 17.48488281 15.125 18.6875 C15.11597656 19.86634766 15.10695313 21.04519531 15.09765625 22.25976562 C15.07406423 25.17338026 15.0411454 28.08658892 15 31 C12.03 31 9.06 31 6 31 C5.93941406 29.65164063 5.87882812 28.30328125 5.81640625 26.9140625 C5.73200578 25.1510304 5.64735753 23.38801016 5.5625 21.625 C5.52318359 20.73554688 5.48386719 19.84609375 5.44335938 18.9296875 C5.40146484 18.07890625 5.35957031 17.228125 5.31640625 16.3515625 C5.27974854 15.56604004 5.24309082 14.78051758 5.20532227 13.97119141 C5.109109 11.92476504 5.109109 11.92476504 4 10 C1.47266765 9.34444881 1.47266765 9.34444881 -1 9 C-1 8.67 -1 8.34 -1 8 C2.465 7.505 2.465 7.505 6 7 C4.68 6.34 3.36 5.68 2 5 C2.33 3.68 2.66 2.36 3 1 C2.01 0.67 1.02 0.34 0 0 Z " fill="#545B5E" transform="translate(360,251)"/>
<path d="M0 0 C1.51400391 0.01740234 1.51400391 0.01740234 3.05859375 0.03515625 C4.07050781 0.04417969 5.08242187 0.05320313 6.125 0.0625 C7.29869141 0.07990234 7.29869141 0.07990234 8.49609375 0.09765625 C8.82609375 1.41765625 9.15609375 2.73765625 9.49609375 4.09765625 C10.81609375 4.42765625 12.13609375 4.75765625 13.49609375 5.09765625 C13.49609375 13.01765625 13.49609375 20.93765625 13.49609375 29.09765625 C10.52609375 29.09765625 7.55609375 29.09765625 4.49609375 29.09765625 C4.49609375 21.83765625 4.49609375 14.57765625 4.49609375 7.09765625 C2.18609375 6.76765625 -0.12390625 6.43765625 -2.50390625 6.09765625 C-2.88609392 4.44150968 -3.21785727 2.77308601 -3.50390625 1.09765625 C-2.50390625 0.09765625 -2.50390625 0.09765625 0 0 Z " fill="#D8A03E" transform="translate(226.50390625,252.90234375)"/>
<path d="M0 0 C1.25200195 -0.0309375 1.25200195 -0.0309375 2.52929688 -0.0625 C9.76624639 -0.10762517 15.04490161 1.35868567 21.1875 5.375 C25.68282157 10.07465437 27.62148131 14.76135284 28.4375 21.1875 C28.07180731 27.47993635 25.75616576 33.43133424 21.3125 37.875 C18.9375 39.25 18.9375 39.25 16.9375 39.25 C16.6075 38.26 16.2775 37.27 15.9375 36.25 C18.2475 35.59 20.5575 34.93 22.9375 34.25 C22.73125 33.46625 22.525 32.6825 22.3125 31.875 C22.18875 31.00875 22.065 30.1425 21.9375 29.25 C22.5975 28.59 23.2575 27.93 23.9375 27.25 C24.18065656 24.58050591 24.18065656 24.58050591 24.0625 21.625 C24.04445313 20.62210937 24.02640625 19.61921875 24.0078125 18.5859375 C23.98460937 17.81507813 23.96140625 17.04421875 23.9375 16.25 C22.9475 16.58 21.9575 16.91 20.9375 17.25 C20.2775 21.54 19.6175 25.83 18.9375 30.25 C17.2875 30.58 15.6375 30.91 13.9375 31.25 C14.42734375 30.70472656 14.9171875 30.15945313 15.421875 29.59765625 C17.27745844 26.72341488 17.27972281 25.07668824 17.1875 21.6875 C17.17203125 20.73746094 17.1565625 19.78742188 17.140625 18.80859375 C17.03106342 16.13042887 17.03106342 16.13042887 15.9375 13.25 C13.93733534 12.04117904 13.93733534 12.04117904 11.9375 11.25 C15.67911103 11.25 19.22703557 11.76338171 22.9375 12.25 C22.4425 10.765 22.4425 10.765 21.9375 9.25 C20.6175 9.25 19.2975 9.25 17.9375 9.25 C17.9375 7.93 17.9375 6.61 17.9375 5.25 C16.6175 5.25 15.2975 5.25 13.9375 5.25 C13.9375 4.59 13.9375 3.93 13.9375 3.25 C6.6775 2.92 -0.5825 2.59 -8.0625 2.25 C-8.3925 15.12 -8.7225 27.99 -9.0625 41.25 C-9.3925 41.25 -9.7225 41.25 -10.0625 41.25 C-10.08714705 35.57169922 -10.10533462 29.89342931 -10.11743164 24.21508789 C-10.12247256 22.28181415 -10.12930519 20.34854424 -10.13793945 18.4152832 C-10.15001565 15.64273128 -10.15573057 12.87022959 -10.16015625 10.09765625 C-10.16531754 9.22786636 -10.17047882 8.35807648 -10.17579651 7.46192932 C-10.17599185 5.39094186 -10.12458168 3.32005676 -10.0625 1.25 C-7.88407167 -0.92842833 -3.01655459 0.01804969 0 0 Z " fill="#D9AC5B" transform="translate(254.0625,239.75)"/>
<path d="M0 0 C2 1.375 2 1.375 2.8125 4.5 C2.874375 5.44875 2.93625 6.3975 3 7.375 C2.01 8.035 1.02 8.695 0 9.375 C-0.33 8.055 -0.66 6.735 -1 5.375 C-1.99 5.705 -2.98 6.035 -4 6.375 C-11.05061082 6.84969459 -11.05061082 6.84969459 -14 5.375 C-14.33 9.665 -14.66 13.955 -15 18.375 C-15.66 18.375 -16.32 18.375 -17 18.375 C-17.33 19.695 -17.66 21.015 -18 22.375 C-19.32 22.045 -20.64 21.715 -22 21.375 C-22.08150744 19.31316367 -22.1394194 17.25038651 -22.1875 15.1875 C-22.22230469 14.03894531 -22.25710937 12.89039063 -22.29296875 11.70703125 C-21.895352 7.18480343 -20.38944795 4.59076696 -17 1.625 C-11.8175318 -1.61404262 -5.79851832 -1.20802465 0 0 Z " fill="#D99F3C" transform="translate(150,251.625)"/>
<path d="M0 0 C4.40785513 1.94464197 7.31353356 5.5591125 9.125 9.9375 C9.91414694 15.57426389 9.30410898 20.10996415 6.125 24.9375 C5.135 25.5975 4.145 26.2575 3.125 26.9375 C3.00125 26.298125 2.8775 25.65875 2.75 25 C2.54375 24.319375 2.3375 23.63875 2.125 22.9375 C1.465 22.6075 0.805 22.2775 0.125 21.9375 C0.125 21.2775 0.125 20.6175 0.125 19.9375 C-1.855 20.9275 -1.855 20.9275 -3.875 21.9375 C-3.38 21.40125 -2.885 20.865 -2.375 20.3125 C-0.47236187 17.29998963 -0.57647311 15.445191 -0.875 11.9375 C-1.205 10.9475 -1.535 9.9575 -1.875 8.9375 C-4.845 8.6075 -7.815 8.2775 -10.875 7.9375 C-10.875 7.6075 -10.875 7.2775 -10.875 6.9375 C-9.225 6.9375 -7.575 6.9375 -5.875 6.9375 C-5.7203125 5.761875 -5.7203125 5.761875 -5.5625 4.5625 C-4.72645349 1.3703224 -3.49485984 -0.11649533 0 0 Z " fill="#565C60" transform="translate(400.875,252.0625)"/>
<path d="M0 0 C3.98313758 1.44708485 7.36058755 3.36067459 10.9375 5.625 C12.09414327 6.3452116 13.25172739 7.06391398 14.41015625 7.78125 C15.00328613 8.14863281 15.59641602 8.51601562 16.20751953 8.89453125 C26.1700969 15.03870863 36.03894779 19.94717397 47 24 C46.67 24.66 46.34 25.32 46 26 C29.13343603 24.16667783 13.88511457 15.61653914 -1 8 C-1 7.67 -1 7.34 -1 7 C2.04386724 6.91773332 4.07175348 7.02391783 7 8 C7.33 7.34 7.66 6.68 8 6 C3.545 5.01 3.545 5.01 -1 4 C-0.67 2.68 -0.34 1.36 0 0 Z " fill="#DCB76B" transform="translate(172,210)"/>
<path d="M0 0 C0.99 0.33 1.98 0.66 3 1 C3.05410687 2.77049689 3.09284119 4.54146849 3.125 6.3125 C3.14820313 7.29863281 3.17140625 8.28476562 3.1953125 9.30078125 C3 12 3 12 1 15 C1 16.32 1 17.64 1 19 C-0.98 19.99 -2.96 20.98 -5 22 C-5 22.66 -5 23.32 -5 24 C-12.09038772 25.50974035 -18.75002578 26.28307925 -26 26 C-25.01 25.34 -24.02 24.68 -23 24 C-22.27617533 21.94074861 -22.27617533 21.94074861 -22 20 C-21.24074219 19.96261719 -20.48148438 19.92523438 -19.69921875 19.88671875 C-18.70535156 19.82097656 -17.71148437 19.75523437 -16.6875 19.6875 C-15.70136719 19.62949219 -14.71523438 19.57148438 -13.69921875 19.51171875 C-10.64994535 18.93363653 -10.03009933 18.21206902 -8 16 C-5.8125 15.3125 -5.8125 15.3125 -4 15 C-3.87882812 14.08476562 -3.75765625 13.16953125 -3.6328125 12.2265625 C-3.46523438 11.03804688 -3.29765625 9.84953125 -3.125 8.625 C-2.96257812 7.44164062 -2.80015625 6.25828125 -2.6328125 5.0390625 C-2 2 -2 2 0 0 Z " fill="#DBA03B" transform="translate(276,255)"/>
<path d="M0 0 C4.62 0 9.24 0 14 0 C14.93775473 5.62652838 14.83970643 8.58855858 14 14 C12.41773035 14.19627391 10.83410729 14.38165538 9.25 14.5625 C8.36828125 14.66691406 7.4865625 14.77132812 6.578125 14.87890625 C4 15 4 15 0 14 C0 9.38 0 4.76 0 0 Z " fill="#61666C" transform="translate(147,216)"/>
<path d="M0 0 C4.29 0 8.58 0 13 0 C15.13067978 4.26135956 15.47076331 7.36621211 15 12 C14.0625 14.8125 14.0625 14.8125 13 17 C12.67 17.99 12.34 18.98 12 20 C11.67 19.34 11.34 18.68 11 18 C7.7 18 4.4 18 1 18 C2.05270463 19.15811388 2.05270463 19.15811388 4 20 C3.67 20.66 3.34 21.32 3 22 C2.01 22 1.02 22 0 22 C0 22.66 0 23.32 0 24 C-4.45201856 22.639661 -6.64245464 21.04150633 -9 17 C-10.31734604 11.2819545 -10.43681472 6.44699762 -8 1 C-6.55792059 3.88415883 -6.90605113 6.41721528 -6.9375 9.625 C-6.94652344 10.81351562 -6.95554688 12.00203125 -6.96484375 13.2265625 C-6.97644531 14.14179688 -6.98804688 15.05703125 -7 16 C-6.01 16 -5.02 16 -4 16 C-3.67 15.01 -3.34 14.02 -3 13 C-2.34 13 -1.68 13 -1 13 C-0.67 8.71 -0.34 4.42 0 0 Z M1 4.625 C-0.28292178 7.67193922 -0.40995912 9.72032701 0 13 C0.90235835 15.48105194 0.90235835 15.48105194 3 17 C6.42009021 17.42751128 8.83132725 17.60318593 11.9375 16 C13.6202561 12.83245911 13.54468716 9.5086342 13 6 C12.34 5.01 11.68 4.02 11 3 C5.57208994 2.25302654 5.57208994 2.25302654 1 4.625 Z " fill="#D8AC5E" transform="translate(136,257)"/>
<path d="M0 0 C3.3994607 1.45691173 5.66372389 3.1185928 8 6 C9.67510452 10.38717851 10.37395399 13.46595182 9 18 C4.59085217 19.10228696 0.51617599 19.07654536 -4 19 C-3.01 18.67 -2.02 18.34 -1 18 C-1 17.34 -1 16.68 -1 16 C-1.99 16.33 -2.98 16.66 -4 17 C-4 16.01 -4 15.02 -4 14 C-6.64 13.34 -9.28 12.68 -12 12 C-11.67 11.01 -11.34 10.02 -11 9 C-11 9.66 -11 10.32 -11 11 C-7.7 10.67 -4.4 10.34 -1 10 C-1 9.34 -1 8.68 -1 8 C-1.66 7.67 -2.32 7.34 -3 7 C-2.34 7 -1.68 7 -1 7 C-1 6.34 -1 5.68 -1 5 C-0.34 4.67 0.32 4.34 1 4 C0.67 2.68 0.34 1.36 0 0 Z " fill="#626A6D" transform="translate(304,252)"/>
<path d="M0 0 C0.515625 0.350625 1.03125 0.70125 1.5625 1.0625 C5.95847694 2.75326036 10.58023454 1.23753433 15 0 C15 0.66 15 1.32 15 2 C16.32 2.66 17.64 3.32 19 4 C17.02836717 6.88161721 15.49117636 8.74271714 12.375 10.375 C6.08211138 11.54034974 0.2950957 11.26405006 -5.125 7.625 C-6.07375 6.75875 -7.0225 5.8925 -8 5 C-8 4.01 -8 3.02 -8 2 C-7.34 2 -6.68 2 -6 2 C-6 2.99 -6 3.98 -6 5 C-4.02 5 -2.04 5 0 5 C0 3.35 0 1.7 0 0 Z " fill="#575D61" transform="translate(293,272)"/>
<path d="M0 0 C1.4540625 0.0309375 1.4540625 0.0309375 2.9375 0.0625 C2.95731934 0.62235596 2.97713867 1.18221191 2.99755859 1.7590332 C3.09287783 4.29815854 3.20252753 6.83646888 3.3125 9.375 C3.3434375 10.25607422 3.374375 11.13714844 3.40625 12.04492188 C3.44492187 12.89248047 3.48359375 13.74003906 3.5234375 14.61328125 C3.5548584 15.39356689 3.5862793 16.17385254 3.61865234 16.9777832 C3.83337889 19.36405768 3.83337889 19.36405768 5.9375 22.0625 C3.9375 23.0625 3.9375 23.0625 0.8125 22.125 C-0.610625 21.5990625 -0.610625 21.5990625 -2.0625 21.0625 C-2.7225 22.0525 -3.3825 23.0425 -4.0625 24.0625 C-4.09137236 20.25001574 -4.10925492 16.4375593 -4.125 12.625 C-4.13337891 11.53638672 -4.14175781 10.44777344 -4.15039062 9.32617188 C-4.15361328 8.29169922 -4.15683594 7.25722656 -4.16015625 6.19140625 C-4.16539307 5.23306885 -4.17062988 4.27473145 -4.17602539 3.28735352 C-3.99820174 -0.19760753 -3.56383452 0.07273132 0 0 Z " fill="#434A4D" transform="translate(321.0625,240.9375)"/>
<path d="M0 0 C4.47500362 -0.18114707 8.03001985 0.41433022 12.3125 1.6875 C23.37247159 4.84458481 34.71453601 6.82997606 46 9 C46 9.33 46 9.66 46 10 C39.94670256 10.13451772 34.02031344 9.60965199 28 9 C27.67 9.66 27.34 10.32 27 11 C5.4370321 6.29743785 5.4370321 6.29743785 0 0 Z " fill="#DEB671" transform="translate(152,289)"/>
<path d="M0 0 C1 2 1 2 1 5 C1.31088368 6.67099977 1.64080332 8.33871537 2 10 C-3.24481736 12.85044422 -6.94278403 13.2316406 -12.86328125 12.71484375 C-15 12 -15 12 -16.29296875 9.94140625 C-16.64294922 8.98041016 -16.64294922 8.98041016 -17 8 C-13.13489417 5.25702167 -9.67260721 4.37639982 -5.0859375 3.625 C-2.66338903 2.89914278 -1.62263338 1.90168498 0 0 Z " fill="#535A60" transform="translate(402,270)"/>
<path d="M0 0 C0.33 0.66 0.66 1.32 1 2 C1.99 2.33 2.98 2.66 4 3 C5.82421875 5.21484375 5.82421875 5.21484375 7.6875 7.9375 C8.62142578 9.28134766 8.62142578 9.28134766 9.57421875 10.65234375 C11 13 11 13 11 15 C7.22667727 15.47579551 3.75066888 15.7164199 0 15 C-2.42975739 12.65260727 -3.74205155 10.11359616 -5 7 C-4.34 6.34 -3.68 5.68 -3 5 C-1.97695052 3.34738161 -0.97383946 1.68208635 0 0 Z " fill="#61686D" transform="translate(115,267)"/>
<path d="M0 0 C0.90105469 0.00902344 1.80210937 0.01804688 2.73046875 0.02734375 C3.41753906 0.03894531 4.10460937 0.05054688 4.8125 0.0625 C4.8125 0.3925 4.8125 0.7225 4.8125 1.0625 C1.1825 1.7225 -2.4475 2.3825 -6.1875 3.0625 C-6.1875 4.0525 -6.1875 5.0425 -6.1875 6.0625 C-5.1975 6.3925 -4.2075 6.7225 -3.1875 7.0625 C-3.496875 7.578125 -3.80625 8.09375 -4.125 8.625 C-5.86840176 12.62456875 -6.1875 16.7305108 -6.1875 21.0625 C-5.5275 21.0625 -4.8675 21.0625 -4.1875 21.0625 C-4.5175 21.7225 -4.8475 22.3825 -5.1875 23.0625 C-8.85980705 19.98250054 -9.75552365 17.8142398 -10.1875 13.0625 C-12.4975 12.7325 -14.8075 12.4025 -17.1875 12.0625 C-12.72938277 4.37042068 -9.48972515 -0.12324318 0 0 Z " fill="#DDA03E" transform="translate(176.1875,250.9375)"/>
<path d="M0 0 C-3.82989106 1.80230168 -6.78121808 2.19622241 -11 2 C-11 2.66 -11 3.32 -11 4 C-12.20398438 4.06058594 -13.40796875 4.12117188 -14.6484375 4.18359375 C-16.22397077 4.26799732 -17.79949096 4.35264541 -19.375 4.4375 C-20.1690625 4.47681641 -20.963125 4.51613281 -21.78125 4.55664062 C-26.02601221 4.68893404 -26.02601221 4.68893404 -30 6 C-31.57291208 6.09003966 -33.14961575 6.11756509 -34.72509766 6.11352539 C-35.70596344 6.11344986 -36.68682922 6.11337433 -37.69741821 6.11329651 C-38.75891083 6.10813522 -39.82040344 6.10297394 -40.9140625 6.09765625 C-41.99883881 6.0962413 -43.08361511 6.09482635 -44.20126343 6.09336853 C-47.67587 6.08775802 -51.15041281 6.07520372 -54.625 6.0625 C-56.97656157 6.05748635 -59.32812415 6.05292321 -61.6796875 6.04882812 C-67.45314686 6.03778518 -73.22656888 6.02103679 -79 6 C-79 5.67 -79 5.34 -79 5 C-78.0519751 4.9906543 -77.1039502 4.98130859 -76.12719727 4.97167969 C-58.48737146 4.76982767 -41.01314633 4.23717059 -23.5 2 C-22.44644821 1.86555481 -22.44644821 1.86555481 -21.37161255 1.72839355 C-13.77432508 0.77440444 -13.77432508 0.77440444 -6.24414062 -0.5859375 C-3.81139891 -1.03479846 -2.32530854 -0.77510285 0 0 Z " fill="#E7C486" transform="translate(316,297)"/>
<path d="M0 0 C0 0.99 0 1.98 0 3 C-1.98 3 -3.96 3 -6 3 C-3.375 0 -3.375 0 0 0 Z M-5 4 C-5.99 4.33 -6.98 4.66 -8 5 C-8.1546875 5.8971875 -8.1546875 5.8971875 -8.3125 6.8125 C-9.44042201 10.40134277 -11.760936 11.29212989 -15 13 C-17.70209669 13.58699048 -20.22762676 13.80880185 -23 14 C-22.67 12.02 -22.34 10.04 -22 8 C-20.68 8 -19.36 8 -18 8 C-17.79375 7.38125 -17.5875 6.7625 -17.375 6.125 C-16 4 -16 4 -13.1875 2.625 C-9.62515523 1.92650102 -8.15739471 2.3284381 -5 4 Z " fill="#DCAE5E" transform="translate(151,206)"/>
<path d="M0 0 C2.64 0 5.28 0 8 0 C8.10957031 0.62648438 8.21914062 1.25296875 8.33203125 1.8984375 C8.49058594 2.71570313 8.64914063 3.53296875 8.8125 4.375 C8.96332031 5.18710937 9.11414063 5.99921875 9.26953125 6.8359375 C9.87544942 9.35820641 9.87544942 9.35820641 13 11 C13 11.66 13 12.32 13 13 C13.66 13 14.32 13 15 13 C15.33 13.99 15.66 14.98 16 16 C11.94568308 17.15837626 9.78187881 16.83691257 6 15 C6 14.34 6 13.68 6 13 C5.34 13 4.68 13 4 13 C4 11.02 4 9.04 4 7 C3.34 7 2.68 7 2 7 C2 5.35 2 3.7 2 2 C1.34 2 0.68 2 0 2 C0 1.34 0 0.68 0 0 Z " fill="#D99F3A" transform="translate(159,263)"/>
<path d="M0 0 C1.48206495 0.254496 2.96068615 0.52911762 4.4375 0.8125 C5.67306641 1.03873047 5.67306641 1.03873047 6.93359375 1.26953125 C7.61550781 1.51058594 8.29742187 1.75164062 9 2 C9.33 2.99 9.66 3.98 10 5 C10.66 5 11.32 5 12 5 C12 5.66 12 6.32 12 7 C8.7 7.33 5.4 7.66 2 8 C2 9.98 2 11.96 2 14 C-1 15 -1 15 -4 14 C-3.46148032 8.72250715 -2.22656164 4.74354436 0 0 Z " fill="#4F5459" transform="translate(291,263)"/>
<path d="M0 0 C-1 3 -1 3 -3.73828125 4.46484375 C-26.2056807 13.72190341 -26.2056807 13.72190341 -31 12 C-28.35261084 10.5393715 -27.10551666 10 -24 10 C-24 9.34 -24 8.68 -24 8 C-26.31 8 -28.62 8 -31 8 C-31 7.67 -31 7.34 -31 7 C-30.07960938 6.82984375 -29.15921875 6.6596875 -28.2109375 6.484375 C-20.23100867 4.95664932 -12.51518152 3.11813951 -4.73046875 0.76953125 C-2 0 -2 0 0 0 Z " fill="#E0BB77" transform="translate(347,288)"/>
<path d="M0 0 C0.90105469 0.00902344 1.80210937 0.01804688 2.73046875 0.02734375 C3.41753906 0.03894531 4.10460937 0.05054688 4.8125 0.0625 C4.8125 0.7225 4.8125 1.3825 4.8125 2.0625 C3.8225 2.7225 2.8325 3.3825 1.8125 4.0625 C1.08867533 6.12175139 1.08867533 6.12175139 0.8125 8.0625 C-0.8375 8.0625 -2.4875 8.0625 -4.1875 8.0625 C-4.5175 9.0525 -4.8475 10.0425 -5.1875 11.0625 C-7.4975 10.7325 -9.8075 10.4025 -12.1875 10.0625 C-12.5175 9.0725 -12.8475 8.0825 -13.1875 7.0625 C-12.548125 6.629375 -11.90875 6.19625 -11.25 5.75 C-8.92003997 4.15010823 -8.92003997 4.15010823 -8.1875 1.0625 C-5.17259443 0.05753148 -3.14568308 -0.04085303 0 0 Z " fill="#4B5457" transform="translate(394.1875,250.9375)"/>
<path d="M0 0 C0.92167969 -0.01224609 1.84335938 -0.02449219 2.79296875 -0.03710938 C8.83647802 -0.04989536 14.14807847 0.67055723 20 2.1875 C19.67 2.8475 19.34 3.5075 19 4.1875 C9.43 4.1875 -0.14 4.1875 -10 4.1875 C-10.33 3.1975 -10.66 2.2075 -11 1.1875 C-8.69061749 -1.12188251 -3.09729725 0.0020956 0 0 Z " fill="#D9A23F" transform="translate(229,302.8125)"/>
<path d="M0 0 C1.134375 0.020625 2.26875 0.04125 3.4375 0.0625 C3.4375 0.7225 3.4375 1.3825 3.4375 2.0625 C2.468125 2.35125 1.49875 2.64 0.5 2.9375 C-2.66914203 3.70464682 -2.66914203 3.70464682 -3.5625 6.0625 C-5.24902344 6.65673828 -5.24902344 6.65673828 -7.421875 7.1328125 C-8.20820313 7.30683594 -8.99453125 7.48085938 -9.8046875 7.66015625 C-10.63226563 7.83417969 -11.45984375 8.00820313 -12.3125 8.1875 C-13.12460937 8.36925781 -13.93671875 8.55101562 -14.7734375 8.73828125 C-18.75891888 9.60158585 -22.45858595 10.31273866 -26.5625 10.0625 C-25.2425 9.0725 -23.9225 8.0825 -22.5625 7.0625 C-23.2225 6.4025 -23.8825 5.7425 -24.5625 5.0625 C-21.2625 5.0625 -17.9625 5.0625 -14.5625 5.0625 C-14.5625 4.4025 -14.5625 3.7425 -14.5625 3.0625 C-13.85222656 2.92972656 -13.14195312 2.79695313 -12.41015625 2.66015625 C-11.49105469 2.48355469 -10.57195312 2.30695313 -9.625 2.125 C-8.70847656 1.95097656 -7.79195313 1.77695312 -6.84765625 1.59765625 C-0.02761628 0.0004845 -0.02761628 0.0004845 0 0 Z " fill="#DCA242" transform="translate(319.5625,295.9375)"/>
<path d="M0 0 C4.02919722 1.66423363 7.93134753 3.45093855 11.8125 5.4375 C16.75902306 7.94495409 21.8201501 10.02724866 27 12 C26.67 12.66 26.34 13.32 26 14 C15.91938187 12.90428064 7.09306935 9.37366264 -2 5 C-0.68 4.34 0.64 3.68 2 3 C1.34 2.67 0.68 2.34 0 2 C0 1.34 0 0.68 0 0 Z " fill="#D9AE60" transform="translate(192,222)"/>
<path d="M0 0 C1.4540625 0.0309375 1.4540625 0.0309375 2.9375 0.0625 C3.2675 0.7225 3.5975 1.3825 3.9375 2.0625 C1.9575 2.0625 -0.0225 2.0625 -2.0625 2.0625 C-2.05089844 3.24585938 -2.03929687 4.42921875 -2.02734375 5.6484375 C-1.97177062 13.86110372 -2.00943599 21.90125394 -3.0625 30.0625 C-1.0825 30.0625 0.8975 30.0625 2.9375 30.0625 C2.9375 24.4525 2.9375 18.8425 2.9375 13.0625 C3.5975 12.7325 4.2575 12.4025 4.9375 12.0625 C4.9375 18.3325 4.9375 24.6025 4.9375 31.0625 C1.9675 31.0625 -1.0025 31.0625 -4.0625 31.0625 C-4.08715622 26.80835377 -4.10533899 22.55424502 -4.11743164 18.30004883 C-4.12247101 16.85179927 -4.12930253 15.40355483 -4.13793945 13.95532227 C-4.15002247 11.87775412 -4.15573211 9.80025303 -4.16015625 7.72265625 C-4.16539307 6.47105713 -4.17062988 5.21945801 -4.17602539 3.92993164 C-4.01898034 -0.03672231 -3.99984495 0.08162949 0 0 Z " fill="#E3C38B" transform="translate(199.0625,250.9375)"/>
<path d="M0 0 C0.99 0.33 1.98 0.66 3 1 C3 4.96 3 8.92 3 13 C3.33 13 3.66 13 4 13 C4 14.98 4 16.96 4 19 C1.69 19 -0.62 19 -3 19 C-3.0809313 16.39521117 -3.14045434 13.79293347 -3.1875 11.1875 C-3.22520508 10.08051758 -3.22520508 10.08051758 -3.26367188 8.95117188 C-3.33834499 3.45025238 -3.33834499 3.45025238 -1.48828125 0.98828125 C-0.99714844 0.66214844 -0.50601563 0.33601563 0 0 Z " fill="#D7A03F" transform="translate(217,262)"/>
<path d="M0 0 C2.18143469 1.23169442 3.66709981 2.40976688 5.296875 4.296875 C4.20375 4.090625 3.110625 3.884375 1.984375 3.671875 C-1.7869651 2.89340975 -1.7869651 2.89340975 -4.703125 5.296875 C-4.373125 6.286875 -4.043125 7.276875 -3.703125 8.296875 C-3.043125 8.296875 -2.383125 8.296875 -1.703125 8.296875 C-1.703125 8.956875 -1.703125 9.616875 -1.703125 10.296875 C-3.8203125 11.83984375 -3.8203125 11.83984375 -6.578125 13.484375 C-7.93550781 14.31001953 -7.93550781 14.31001953 -9.3203125 15.15234375 C-10.10664063 15.53003906 -10.89296875 15.90773437 -11.703125 16.296875 C-12.363125 15.966875 -13.023125 15.636875 -13.703125 15.296875 C-13.373125 14.306875 -13.043125 13.316875 -12.703125 12.296875 C-12.043125 11.966875 -11.383125 11.636875 -10.703125 11.296875 C-13.673125 10.801875 -13.673125 10.801875 -16.703125 10.296875 C-13.90074157 7.38446728 -11.01094521 4.83211281 -7.765625 2.421875 C-6.93160156 1.78507813 -6.09757813 1.14828125 -5.23828125 0.4921875 C-2.703125 -0.703125 -2.703125 -0.703125 0 0 Z M-9.390625 8.796875 C-9.82375 9.291875 -10.256875 9.786875 -10.703125 10.296875 C-8.723125 10.296875 -6.743125 10.296875 -4.703125 10.296875 C-4.703125 9.306875 -4.703125 8.316875 -4.703125 7.296875 C-7.70572017 6.96469308 -7.70572017 6.96469308 -9.390625 8.796875 Z " fill="#DCB062" transform="translate(155.703125,198.703125)"/>
<path d="M0 0 C1.98 0 3.96 0 6 0 C7.13016601 5.02296004 6.77916092 8.97874074 6 14 C4.02 14 2.04 14 0 14 C-1.33257403 4.58997722 -1.33257403 4.58997722 0 0 Z " fill="#505356" transform="translate(155,216)"/>
<path d="M0 0 C8.66725664 -0.44070796 8.66725664 -0.44070796 13 3 C15.35119399 6.52679099 15.21443452 8.02879485 15.125 12.1875 C15.10695313 13.27417969 15.08890625 14.36085938 15.0703125 15.48046875 C15.03550781 16.72763672 15.03550781 16.72763672 15 18 C14.67 18 14.34 18 14 18 C13.93941406 17.31292969 13.87882812 16.62585938 13.81640625 15.91796875 C13.73261719 15.01691406 13.64882813 14.11585938 13.5625 13.1875 C13.48128906 12.29417969 13.40007812 11.40085937 13.31640625 10.48046875 C13.06510233 7.87256441 13.06510233 7.87256441 12 5 C11.34 5 10.68 5 10 5 C10 5.99 10 6.98 10 8 C7.07120629 7.37240135 4.63904371 6.41377341 2 5 C2.33 3.68 2.66 2.36 3 1 C2.01 0.67 1.02 0.34 0 0 Z M-1 8 C1.31 8 3.62 8 6 8 C5.67 9.32 5.34 10.64 5 12 C4.67 11.34 4.34 10.68 4 10 C1.47266765 9.34444881 1.47266765 9.34444881 -1 9 C-1 8.67 -1 8.34 -1 8 Z " fill="#717679" transform="translate(360,251)"/>
<path d="M0 0 C1.18613892 0.00785522 1.18613892 0.00785522 2.39624023 0.01586914 C3.67724609 0.02070313 3.67724609 0.02070313 4.98413086 0.02563477 C5.88196289 0.03401367 6.77979492 0.04239258 7.70483398 0.05102539 C8.6065332 0.05553711 9.50823242 0.06004883 10.43725586 0.06469727 C12.67234712 0.07652315 14.90730835 0.09300319 17.14233398 0.11352539 C17.47233398 0.77352539 17.80233398 1.43352539 18.14233398 2.11352539 C11.87233398 2.11352539 5.60233398 2.11352539 -0.85766602 2.11352539 C-1.18766602 14.98352539 -1.51766602 27.85352539 -1.85766602 41.11352539 C-2.18766602 41.11352539 -2.51766602 41.11352539 -2.85766602 41.11352539 C-2.88231306 35.43522461 -2.90050064 29.7569547 -2.91259766 24.07861328 C-2.91763858 22.14533954 -2.9244712 20.21206963 -2.93310547 18.27880859 C-2.94518166 15.50625667 -2.95089658 12.73375498 -2.95532227 9.96118164 C-2.96048355 9.09139175 -2.96564484 8.22160187 -2.97096252 7.32545471 C-2.97115787 5.25446725 -2.91974769 3.18358215 -2.85766602 1.11352539 C-1.85766602 0.11352539 -1.85766602 0.11352539 0 0 Z " fill="#F0E4A3" transform="translate(246.857666015625,239.886474609375)"/>
<path d="M0 0 C0.66 0.33 1.32 0.66 2 1 C1.2884375 1.6496875 1.2884375 1.6496875 0.5625 2.3125 C-1.23686957 4.02309613 -1.23686957 4.02309613 -2 7 C0.64 7 3.28 7 6 7 C3.62115735 9.85770059 1.92085669 10.49879419 -1.75 10.875 C-6.69932015 11.25962459 -9.67602069 10.34998876 -14 8 C-11.33333333 7.33333333 -8.66666667 6.66666667 -6 6 C-6 5.34 -6 4.68 -6 4 C-6.66 4 -7.32 4 -8 4 C-8 3.34 -8 2.68 -8 2 C-6.2984375 1.7834375 -6.2984375 1.7834375 -4.5625 1.5625 C-1.19222799 1.38828522 -1.19222799 1.38828522 0 0 Z " fill="#DEAB58" transform="translate(180,272)"/>
<path d="M0 0 C0 0.66 0 1.32 0 2 C1.32 2.66 2.64 3.32 4 4 C4 4.66 4 5.32 4 6 C1.54101345 6.08076963 -0.91533742 6.14037143 -3.375 6.1875 C-4.42300781 6.22520508 -4.42300781 6.22520508 -5.4921875 6.26367188 C-7.5234375 6.29296875 -7.5234375 6.29296875 -11 6 C-11.66 5.01 -12.32 4.02 -13 3 C-9.25711729 -0.74288271 -5.09766283 -0.09803198 0 0 Z " fill="#D9A239" transform="translate(181,252)"/>
<path d="M0 0 C1.44207941 2.88415883 1.09394887 5.41721528 1.0625 8.625 C1.05347656 9.81351562 1.04445312 11.00203125 1.03515625 12.2265625 C1.02355469 13.14179688 1.01195312 14.05703125 1 15 C1.99 15 2.98 15 4 15 C4.33 14.01 4.66 13.02 5 12 C5.66 12 6.32 12 7 12 C7 13.98 7 15.96 7 18 C7.66 18.33 8.32 18.66 9 19 C9.33 18.67 9.66 18.34 10 18 C10.66 18.33 11.32 18.66 12 19 C11.67 19.66 11.34 20.32 11 21 C10.01 21 9.02 21 8 21 C8 21.66 8 22.32 8 23 C3.54798144 21.639661 1.35754536 20.04150633 -1 16 C-2.31734604 10.2819545 -2.43681472 5.44699762 0 0 Z " fill="#DCA548" transform="translate(128,258)"/>
<path d="M0 0 C2.64 0 5.28 0 8 0 C8.52849741 5.28497409 8.52849741 5.28497409 8 8 C5 10.5 5 10.5 2 12 C0.00214565 7.8794254 -0.17835515 4.54805635 0 0 Z " fill="#444A4E" transform="translate(347,241)"/>
<path d="M0 0 C0.99 0.495 0.99 0.495 2 1 C4.3400417 0.71758117 6.67504723 0.38749213 9 0 C8.67 3.3 8.34 6.6 8 10 C5.36 10 2.72 10 0 10 C0 6.7 0 3.4 0 0 Z " fill="#4E5558" transform="translate(317,272)"/>
<path d="M0 0 C3.3 0 6.6 0 10 0 C10 3 10 3 8.1015625 5.19140625 C7.28429687 5.97386719 6.46703125 6.75632812 5.625 7.5625 C4.81289063 8.34753906 4.00078125 9.13257813 3.1640625 9.94140625 C2.44992187 10.62074219 1.73578125 11.30007813 1 12 C0.34 12.66 -0.32 13.32 -1 14 C-1.125 6.375 -1.125 6.375 0 3 C0.66 2.67 1.32 2.34 2 2 C1.34 1.34 0.68 0.68 0 0 Z " fill="#70757A" transform="translate(335,251)"/>
<path d="M0 0 C5.22321429 4.82142857 5.22321429 4.82142857 6 9 C4.37536158 9.05395478 2.75021459 9.09277195 1.125 9.125 C0.22007812 9.14820313 -0.68484375 9.17140625 -1.6171875 9.1953125 C-4 9 -4 9 -6 7 C-6.39764263 5.01178687 -6.73775349 3.01055661 -7 1 C-6.21625 1.350625 -5.4325 1.70125 -4.625 2.0625 C-3.75875 2.371875 -2.8925 2.68125 -2 3 C-1.34 2.67 -0.68 2.34 0 2 C0 1.34 0 0.68 0 0 Z " fill="#6C7073" transform="translate(340,273)"/>
<path d="M0 0 C1.4370809 -0.05422947 2.87475462 -0.09289723 4.3125 -0.125 C5.11300781 -0.14820313 5.91351563 -0.17140625 6.73828125 -0.1953125 C9 0 9 0 12 2 C14.28397032 1.65394389 15.93409037 1.03295481 18 0 C21.05950033 -0.42075643 23.9464284 -0.48435963 27 0 C30.0625 2.375 30.0625 2.375 32 5 C32 5.66 32 6.32 32 7 C30.68 6.67 29.36 6.34 28 6 C28 4.68 28 3.36 28 2 C26.18706911 2.14037521 24.3746557 2.28744889 22.5625 2.4375 C21.55316406 2.51871094 20.54382813 2.59992188 19.50390625 2.68359375 C17.06359221 2.73211468 17.06359221 2.73211468 16 4 C13.66702567 4.04092937 11.33294775 4.04241723 9 4 C9 3.34 9 2.68 9 2 C6.03 2 3.06 2 0 2 C0 1.34 0 0.68 0 0 Z " fill="#DDBA77" transform="translate(207,251)"/>
<path d="M0 0 C7.38921642 -0.29556866 14.77297327 0.41142696 22 2 C22.33 2.66 22.66 3.32 23 4 C20.36 4.66 17.72 5.32 15 6 C15 5.01 15 4.02 15 3 C14.01 3 13.02 3 12 3 C12 3.66 12 4.32 12 5 C8.37 4.67 4.74 4.34 1 4 C0.67 2.68 0.34 1.36 0 0 Z " fill="#D6A14B" transform="translate(178,297)"/>
<path d="M0 0 C0.33 0 0.66 0 1 0 C1 7.92 1 15.84 1 24 C-1.97 24 -4.94 24 -8 24 C-8 17.07 -8 10.14 -8 3 C-7.67 3 -7.34 3 -7 3 C-7 9.6 -7 16.2 -7 23 C-5.02 23 -3.04 23 -1 23 C-0.88861841 17.54230189 -1.08342019 12.38490641 -2 7 C-1.34 7 -0.68 7 0 7 C0 4.69 0 2.38 0 0 Z " fill="#D4AF68" transform="translate(239,258)"/>
<path d="M0 0 C2 0.75 2 0.75 5 2.75 C5 3.41 5 4.07 5 4.75 C4.34 4.75 3.68 4.75 3 4.75 C2.67 5.41 2.34 6.07 2 6.75 C0.68 6.42 -0.64 6.09 -2 5.75 C-2 6.74 -2 7.73 -2 8.75 C-4.97 8.42 -7.94 8.09 -11 7.75 C-11 7.42 -11 7.09 -11 6.75 C-9.35 6.75 -7.7 6.75 -6 6.75 C-5.8453125 5.574375 -5.8453125 5.574375 -5.6875 4.375 C-4.83338149 1.11382025 -3.56550898 -0.44568862 0 0 Z " fill="#5E6567" transform="translate(401,252.25)"/>
<path d="M0 0 C2.4375 0.8125 2.4375 0.8125 5.4375 2.8125 C6.125 5.9375 6.125 5.9375 6.4375 8.8125 C4.7875 8.4825 3.1375 8.1525 1.4375 7.8125 C1.4375 7.1525 1.4375 6.4925 1.4375 5.8125 C-0.5425 5.8125 -2.5225 5.8125 -4.5625 5.8125 C-4.5625 5.1525 -4.5625 4.4925 -4.5625 3.8125 C-5.2225 3.4825 -5.8825 3.1525 -6.5625 2.8125 C-4.23417856 0.65664681 -3.2371617 -0.23686549 0 0 Z " fill="#DB9D3B" transform="translate(156.5625,201.1875)"/>
<path d="M0 0 C1.32 0.33 2.64 0.66 4 1 C4 1.99 4 2.98 4 4 C4.66 4 5.32 4 6 4 C6.33 4.99 6.66 5.98 7 7 C6.34 7 5.68 7 5 7 C5 8.65 5 10.3 5 12 C3.35 12.33 1.7 12.66 0 13 C0 8.71 0 4.42 0 0 Z " fill="#434B4E" transform="translate(367,269)"/>
<path d="M0 0 C0.99 0 1.98 0 3 0 C3.31563182 5.26053037 2.66590937 8.44573816 0 13 C-0.99 12.34 -1.98 11.68 -3 11 C-2.01 11 -1.02 11 0 11 C0 10.34 0 9.68 0 9 C-4.97906259 8.24572703 -4.97906259 8.24572703 -10 8 C-8.68 6.35 -7.36 4.7 -6 3 C-5.34 3.66 -4.68 4.32 -4 5 C-2.64567325 3.68799596 -1.31266518 2.35368596 0 1 C0 0.67 0 0.34 0 0 Z " fill="#717677" transform="translate(122,251)"/>
<path d="M0 0 C1.45880109 0.14107747 2.91703551 0.28802415 4.375 0.4375 C5.59316406 0.55931641 5.59316406 0.55931641 6.8359375 0.68359375 C9 1 9 1 11 2 C11 2.99 11 3.98 11 5 C11.99 5.33 12.98 5.66 14 6 C13.67 6.66 13.34 7.32 13 8 C8.02693484 7.50269348 4.36200187 6.44697666 0 4 C0 2.68 0 1.36 0 0 Z " fill="#DBB065" transform="translate(181,219)"/>
<path d="M0 0 C2.64 0.33 5.28 0.66 8 1 C8 1.66 8 2.32 8 3 C6.02 3 4.04 3 2 3 C2 6.63 2 10.26 2 14 C0.68 13.67 -0.64 13.34 -2 13 C-2.05416188 11.39620659 -2.09286638 9.79188594 -2.125 8.1875 C-2.14820312 7.29417969 -2.17140625 6.40085938 -2.1953125 5.48046875 C-2 3 -2 3 0 0 Z " fill="#D3A85A" transform="translate(121,207)"/>
<path d="M0 0 C6.48103465 -0.36685102 6.48103465 -0.36685102 8.72583008 1.2199707 C10.39694085 3.55453071 10.27331615 4.82630585 10.07421875 7.66796875 C9.99204102 9.00698242 9.99204102 9.00698242 9.90820312 10.37304688 C9.83537109 11.30181641 9.76253906 12.23058594 9.6875 13.1875 C9.62626953 14.12787109 9.56503906 15.06824219 9.50195312 16.03710938 C9.34870489 18.35940957 9.1808714 20.67971458 9 23 C11.31 23 13.62 23 16 23 C16.33 22.01 16.66 21.02 17 20 C17 21.32 17 22.64 17 24 C14.03 24 11.06 24 8 24 C7.93941406 22.56785156 7.87882813 21.13570313 7.81640625 19.66015625 C7.73201896 17.79425959 7.64737007 15.92837476 7.5625 14.0625 C7.52318359 13.11697266 7.48386719 12.17144531 7.44335938 11.19726562 C7.40146484 10.29814453 7.35957031 9.39902344 7.31640625 8.47265625 C7.27974854 7.64000244 7.24309082 6.80734863 7.20532227 5.94946289 C7.20632897 3.99661142 7.20632897 3.99661142 6 3 C2.36805359 2.80850919 2.36805359 2.80850919 -1 4 C-0.67 2.68 -0.34 1.36 0 0 Z " fill="#DFBD80" transform="translate(205,258)"/>
<path d="M0 0 C3.3 0 6.6 0 10 0 C10.33 0.99 10.66 1.98 11 3 C10.01 4.485 10.01 4.485 9 6 C6.6171875 6.29296875 6.6171875 6.29296875 3.875 6.1875 C2.96492187 6.16042969 2.05484375 6.13335937 1.1171875 6.10546875 C0.41851562 6.07066406 -0.28015625 6.03585937 -1 6 C-1 5.34 -1 4.68 -1 4 C-0.01 4 0.98 4 2 4 C0.94729537 2.84188612 0.94729537 2.84188612 -1 2 C-0.67 1.34 -0.34 0.68 0 0 Z " fill="#DBA040" transform="translate(137,275)"/>
<path d="M0 0 C0.33 0 0.66 0 1 0 C1.03738281 0.75925781 1.07476562 1.51851562 1.11328125 2.30078125 C1.17902344 3.29464844 1.24476562 4.28851563 1.3125 5.3125 C1.39951172 6.79169922 1.39951172 6.79169922 1.48828125 8.30078125 C2.06024383 11.31777469 2.80678953 11.99750348 5 14 C4.6875 16.6875 4.6875 16.6875 4 19 C2.02 19.66 0.04 20.32 -2 21 C-2 20.34 -2 19.68 -2 19 C-1.01 19 -0.02 19 1 19 C1 18.34 1 17.68 1 17 C-1.31 17.33 -3.62 17.66 -6 18 C-4.36587557 16.29159719 -3.13093906 15.06546953 -1 14 C-0.52998967 10.72444392 -0.52998967 10.72444392 -0.375 6.9375 C-0.26285156 5.00197266 -0.26285156 5.00197266 -0.1484375 3.02734375 C-0.09945312 2.02832031 -0.05046875 1.02929688 0 0 Z " fill="#E4BE81" transform="translate(118,207)"/>
<path d="M0 0 C-3.82989106 1.80230168 -6.78121808 2.19622241 -11 2 C-11 2.66 -11 3.32 -11 4 C-17.6 4 -24.2 4 -31 4 C-31 3.67 -31 3.34 -31 3 C-26.58525431 2.29976385 -22.16797838 1.61701647 -17.75 0.9375 C-16.49574219 0.73833984 -15.24148438 0.53917969 -13.94921875 0.33398438 C-12.74394531 0.15029297 -11.53867187 -0.03339844 -10.296875 -0.22265625 C-8.63156738 -0.48187866 -8.63156738 -0.48187866 -6.93261719 -0.74633789 C-4.25129009 -0.9782642 -2.51898933 -0.86020806 0 0 Z " fill="#DFB976" transform="translate(316,297)"/>
<path d="M0 0 C2.0625 0.4375 2.0625 0.4375 4 1 C3.67 2.32 3.34 3.64 3 5 C4.11375 5.144375 5.2275 5.28875 6.375 5.4375 C10 6 10 6 12 7 C11.67 7.99 11.34 8.98 11 10 C5.06 8.515 5.06 8.515 -1 7 C-1 1 -1 1 0 0 Z " fill="#D89D3D" transform="translate(168,209)"/>
<path d="M0 0 C0 0.99 0 1.98 0 3 C-0.66 3 -1.32 3 -2 3 C-2 4.32 -2 5.64 -2 7 C-6.455 7.495 -6.455 7.495 -11 8 C-10.34 6.35 -9.68 4.7 -9 3 C-8.34 3 -7.68 3 -7 3 C-6.67 2.01 -6.34 1.02 -6 0 C-3.50907189 -1.24546405 -2.58919267 -0.7767578 0 0 Z " fill="#DCA13A" transform="translate(188,272)"/>
<path d="M0 0 C0.90105469 0.00902344 1.80210937 0.01804688 2.73046875 0.02734375 C3.41753906 0.03894531 4.10460937 0.05054688 4.8125 0.0625 C4.8125 0.3925 4.8125 0.7225 4.8125 1.0625 C1.1825 1.7225 -2.4475 2.3825 -6.1875 3.0625 C-6.5175 4.0525 -6.8475 5.0425 -7.1875 6.0625 C-8.8375 6.3925 -10.4875 6.7225 -12.1875 7.0625 C-12.1875 8.3825 -12.1875 9.7025 -12.1875 11.0625 C-13.8375 11.3925 -15.4875 11.7225 -17.1875 12.0625 C-12.72938277 4.37042068 -9.48972515 -0.12324318 0 0 Z " fill="#DFB771" transform="translate(176.1875,250.9375)"/>
<path d="M0 0 C4.91759604 -0.24511382 9.18525495 0.65487933 13.875 2 C14.56335938 2.19078125 15.25171875 2.3815625 15.9609375 2.578125 C17.64254171 3.04523728 19.32155385 3.5216642 21 4 C21 4.33 21 4.66 21 5 C13.28201125 6.31897946 8.2253828 6.47467285 1.546875 2.12890625 C1.03640625 1.75636719 0.5259375 1.38382812 0 1 C0 0.67 0 0.34 0 0 Z " fill="#DBC08A" transform="translate(152,289)"/>
<path d="M0 0 C1.4540625 0.0309375 1.4540625 0.0309375 2.9375 0.0625 C3.2675 0.7225 3.5975 1.3825 3.9375 2.0625 C1.9575 2.0625 -0.0225 2.0625 -2.0625 2.0625 C-2.0625 8.0025 -2.0625 13.9425 -2.0625 20.0625 C-2.7225 20.3925 -3.3825 20.7225 -4.0625 21.0625 C-4.09138146 17.75001813 -4.10925799 14.43756833 -4.125 11.125 C-4.13337891 10.17947266 -4.14175781 9.23394531 -4.15039062 8.25976562 C-4.15361328 7.36064453 -4.15683594 6.46152344 -4.16015625 5.53515625 C-4.16539307 4.70250244 -4.17062988 3.86984863 -4.17602539 3.01196289 C-3.98525275 -0.26399306 -3.34296677 0.06822381 0 0 Z " fill="#DBB374" transform="translate(199.0625,250.9375)"/>
<path d="M0 0 C2.64 0.99 5.28 1.98 8 3 C8 3.33 8 3.66 8 4 C6.35 4 4.7 4 3 4 C2.34 5.98 1.68 7.96 1 10 C-2.43198603 8.76067171 -5.30325632 7.49698489 -8 5 C-8 4.01 -8 3.02 -8 2 C-7.34 2 -6.68 2 -6 2 C-6 2.99 -6 3.98 -6 5 C-4.02 5 -2.04 5 0 5 C0 3.35 0 1.7 0 0 Z " fill="#6D7578" transform="translate(293,272)"/>
<path d="M0 0 C0.66 0.99 1.32 1.98 2 3 C3.31387169 4.35251497 4.64426252 5.68945377 6 7 C2.03956254 8.32014582 -0.09721599 7.27727477 -4 6 C-4.66 5.67 -5.32 5.34 -6 5 C-5.625 3.0625 -5.625 3.0625 -5 1 C-3 0 -3 0 0 0 Z " fill="#DAA13A" transform="translate(272,245)"/>
<path d="M0 0 C0.33 0.99 0.66 1.98 1 3 C-1.33296459 7.30701155 -3.45943596 10.08287296 -8 12 C-13.24416783 13.12777803 -16.07846081 13.46076959 -21 11 C-14.565 10.505 -14.565 10.505 -8 10 C-7.67 9.01 -7.34 8.02 -7 7 C-6.01 7.33 -5.02 7.66 -4 8 C-3.67 6.68 -3.34 5.36 -3 4 C-2.34 4 -1.68 4 -1 4 C-0.67 2.68 -0.34 1.36 0 0 Z " fill="#DFB674" transform="translate(157,270)"/>
<path d="M0 0 C2.89932357 2.39509338 3.50168276 4.31245243 4 8 C2.02 8.33 0.04 8.66 -2 9 C-2.99 7.35 -3.98 5.7 -5 4 C-4.360625 3.71125 -3.72125 3.4225 -3.0625 3.125 C-0.84793921 2.17176549 -0.84793921 2.17176549 0 0 Z M-6 6 C-5.34 6 -4.68 6 -4 6 C-3.67 7.32 -3.34 8.64 -3 10 C-4.02104551 9.02149805 -5.0206121 8.02019573 -6 7 C-6 6.67 -6 6.34 -6 6 Z " fill="#565C60" transform="translate(337,268)"/>
<path d="M0 0 C2.0343459 1.41519715 2.90410393 2.54982123 3.421875 4.98046875 C3.66273952 6.98176954 3.83532741 8.9909944 4 11 C1 12 1 12 -2 11 C-1 3.57142857 -1 3.57142857 0 0 Z " fill="#43484D" transform="translate(289,266)"/>
<path d="M0 0 C5.66261699 1.24577574 8.87452052 2.87452052 13 7 C13.875 9.3125 13.875 9.3125 14 11 C13.01 10.67 12.02 10.34 11 10 C11 9.34 11 8.68 11 8 C9.68 8 8.36 8 7 8 C7 6.68 7 5.36 7 4 C5.68 4 4.36 4 3 4 C3 3.34 3 2.68 3 2 C2.01 2 1.02 2 0 2 C0 1.34 0 0.68 0 0 Z " fill="#DAAE63" transform="translate(265,241)"/>
<path d="M0 0 C-3.39023753 2.26015835 -6.45547072 2.88346743 -10.375 3.625 C-11.035 3.7590625 -11.695 3.893125 -12.375 4.03125 C-15.96390908 4.73187368 -19.34393457 5.15527691 -23 5 C-21.0373772 2.95204577 -19.5722693 2.05023362 -16.73046875 1.80078125 C-14.48045617 1.81141123 -12.24614438 1.87041475 -10 2 C-10 1.34 -10 0.68 -10 0 C-6.7169902 -1.6415049 -3.57454967 -0.51888624 0 0 Z " fill="#DEBD75" transform="translate(316,301)"/>
<path d="M0 0 C3.68007532 0.18098731 6.40147147 0.85636692 9.8125 2.1875 C9.8125 2.8475 9.8125 3.5075 9.8125 4.1875 C7.85483719 4.26832094 5.89623272 4.32660778 3.9375 4.375 C2.30167969 4.42720703 2.30167969 4.42720703 0.6328125 4.48046875 C-0.29789063 4.38378906 -1.22859375 4.28710938 -2.1875 4.1875 C-2.8475 3.1975 -3.5075 2.2075 -4.1875 1.1875 C-3.1875 0.1875 -3.1875 0.1875 0 0 Z " fill="#D9A13D" transform="translate(206.1875,300.8125)"/>
<path d="M0 0 C3.3 0 6.6 0 10 0 C11.62298792 4.10520474 12.37979067 6.74564545 11 11 C10.01 12.485 10.01 12.485 9 14 C9.04125 12.9275 9.0825 11.855 9.125 10.75 C9.12803042 6.43479134 9.12803042 6.43479134 7 3 C3.43793339 2.18129815 3.43793339 2.18129815 0 2 C0 1.34 0 0.68 0 0 Z " fill="#DDBA73" transform="translate(173,258)"/>
<path d="M0 0 C8.67254919 0.60297309 17.33850205 1.25441318 26 2 C26 2.33 26 2.66 26 3 C23.7089095 3.19441368 21.41709663 3.38033135 19.125 3.5625 C17.21074219 3.71912109 17.21074219 3.71912109 15.2578125 3.87890625 C12 4 12 4 10 3 C7.66810655 2.73044167 5.33678493 2.55492623 2.99609375 2.37890625 C2.33738281 2.25386719 1.67867187 2.12882812 1 2 C0.67 1.34 0.34 0.68 0 0 Z " fill="#DFBC83" transform="translate(200,299)"/>
<path d="M0 0 C2.31 0.66 4.62 1.32 7 2 C7 7.94 7 13.88 7 20 C5.35 20.33 3.7 20.66 2 21 C2.48984375 20.45472656 2.9796875 19.90945313 3.484375 19.34765625 C5.33995844 16.47341488 5.34222281 14.82668824 5.25 11.4375 C5.23453125 10.48746094 5.2190625 9.53742188 5.203125 8.55859375 C5.09356342 5.88042887 5.09356342 5.88042887 4 3 C1.99983534 1.79117904 1.99983534 1.79117904 0 1 C0 0.67 0 0.34 0 0 Z " fill="#DAB770" transform="translate(266,250)"/>
<path d="M0 0 C1.32 0.66 2.64 1.32 4 2 C4 2.66 4 3.32 4 4 C5.32 4.33 6.64 4.66 8 5 C8 5.66 8 6.32 8 7 C4.7 7 1.4 7 -2 7 C-2 2 -2 2 0 0 Z " fill="#535A5E" transform="translate(118,275)"/>
<path d="M0 0 C2 1 2 1 2.625 2.5625 C3.36112996 7.34734473 3.54665703 12.36002892 2 17 C1.34 17 0.68 17 0 17 C0 11.39 0 5.78 0 0 Z " fill="#E2B776" transform="translate(189,258)"/>
<path d="M0 0 C0.99 0 1.98 0 3 0 C2.67 1.32 2.34 2.64 2 4 C4.97 4.495 4.97 4.495 8 5 C6 7 6 7 4.0546875 7.1953125 C2.03645833 7.13020833 0.01822917 7.06510417 -2 7 C-2.125 4.625 -2.125 4.625 -2 2 C-1.34 1.34 -0.68 0.68 0 0 Z " fill="#41484B" transform="translate(360,252)"/>
<path d="M0 0 C1.32 0 2.64 0 4 0 C4.66 1.65 5.32 3.3 6 5 C5.01 5 4.02 5 3 5 C3 5.66 3 6.32 3 7 C0.03 6.505 0.03 6.505 -3 6 C-1.125 1.125 -1.125 1.125 0 0 Z " fill="#42494C" transform="translate(300,252)"/>
<path d="M0 0 C0 0.66 0 1.32 0 2 C-0.99 2 -1.98 2 -3 2 C-3 2.66 -3 3.32 -3 4 C-6.3 4.33 -9.6 4.66 -13 5 C-13 4.34 -13 3.68 -13 3 C-4.57142857 -0.42857143 -4.57142857 -0.42857143 0 0 Z " fill="#D6A54E" transform="translate(119,224)"/>
<path d="M0 0 C1.32 0 2.64 0 4 0 C4 0.99 4 1.98 4 3 C2.68 3.33 1.36 3.66 0 4 C0 4.99 0 5.98 0 7 C-1.65 7.33 -3.3 7.66 -5 8 C-4.67 6.02 -4.34 4.04 -4 2 C-2.68 2 -1.36 2 0 2 C0 1.34 0 0.68 0 0 Z " fill="#D99E3F" transform="translate(133,212)"/>
<path d="M0 0 C1.44207941 2.88415883 1.09394887 5.41721528 1.0625 8.625 C1.05347656 9.81351562 1.04445312 11.00203125 1.03515625 12.2265625 C1.02355469 13.14179688 1.01195312 14.05703125 1 15 C1.99 15.33 2.98 15.66 4 16 C3.34 17.32 2.68 18.64 2 20 C-1.71448094 15.65475815 -2.03513925 11.58714055 -2 6 C-1.0625 2.375 -1.0625 2.375 0 0 Z " fill="#DCBF83" transform="translate(128,258)"/>
<path d="M0 0 C0 0.99 0 1.98 0 3 C-1.98 3 -3.96 3 -6 3 C-3.375 0 -3.375 0 0 0 Z M-10 2 C-7.375 2.9375 -7.375 2.9375 -5 4 C-5.99 4.33 -6.98 4.66 -8 5 C-8 5.66 -8 6.32 -8 7 C-8.99 7 -9.98 7 -11 7 C-11.33 5.68 -11.66 4.36 -12 3 C-11.34 2.67 -10.68 2.34 -10 2 Z " fill="#DBA039" transform="translate(151,206)"/>
<path d="M0 0 C0.99 0 1.98 0 3 0 C2.67 0.845625 2.34 1.69125 2 2.5625 C0.93894046 6.20989216 0.84890987 9.22274664 1 13 C1.66 13 2.32 13 3 13 C2.67 13.66 2.34 14.32 2 15 C-0.77021076 12.74920376 -1.91449347 11.66980112 -2.375 8.0625 C-2.0051077 5.04171291 -1.2908737 2.7431066 0 0 Z " fill="#DDB66C" transform="translate(169,259)"/>
<path d="M0 0 C0.66 1.32 1.32 2.64 2 4 C-0.51407619 8.28324091 -2.12314139 10.64531705 -7 12 C-7.33 11.01 -7.66 10.02 -8 9 C-5.69 8.34 -3.38 7.68 -1 7 C-1.309375 5.824375 -1.309375 5.824375 -1.625 4.625 C-1.74875 3.75875 -1.8725 2.8925 -2 2 C-1.34 1.34 -0.68 0.68 0 0 Z " fill="#DBB66C" transform="translate(278,267)"/>
<path d="M0 0 C1.32 0 2.64 0 4 0 C4.33 0.99 4.66 1.98 5 3 C4.01 3.495 4.01 3.495 3 4 C2.67 4.99 2.34 5.98 2 7 C-1.63 6.67 -5.26 6.34 -9 6 C-9 5.67 -9 5.34 -9 5 C-6.36 4.67 -3.72 4.34 -1 4 C-0.67 2.68 -0.34 1.36 0 0 Z " fill="#DBA852" transform="translate(264,243)"/>
<path d="M0 0 C4.09305456 1.65296434 7.58983503 3.13546142 11 6 C8.69 5.67 6.38 5.34 4 5 C4 5.66 4 6.32 4 7 C2.02 6.34 0.04 5.68 -2 5 C-0.68 4.34 0.64 3.68 2 3 C1.34 2.67 0.68 2.34 0 2 C0 1.34 0 0.68 0 0 Z " fill="#E1C182" transform="translate(192,222)"/>
<path d="M0 0 C0.8353125 0.37125 0.8353125 0.37125 1.6875 0.75 C1.0275 0.75 0.3675 0.75 -0.3125 0.75 C-0.3125 2.07 -0.3125 3.39 -0.3125 4.75 C-1.6325 4.42 -2.9525 4.09 -4.3125 3.75 C-4.3125 5.07 -4.3125 6.39 -4.3125 7.75 C-4.9725 7.75 -5.6325 7.75 -6.3125 7.75 C-6.6425 6.43 -6.9725 5.11 -7.3125 3.75 C-2.88173077 -0.31153846 -2.88173077 -0.31153846 0 0 Z " fill="#E0A136" transform="translate(140.3125,253.25)"/>
<path d="M0 0 C-1 3 -1 3 -2.84765625 3.94921875 C-3.94400391 4.31466797 -3.94400391 4.31466797 -5.0625 4.6875 C-6.16271484 5.06455078 -6.16271484 5.06455078 -7.28515625 5.44921875 C-7.85105469 5.63097656 -8.41695313 5.81273437 -9 6 C-9 5.34 -9 4.68 -9 4 C-10.65 4 -12.3 4 -14 4 C-14 3.67 -14 3.34 -14 3 C-12.0424015 2.49713066 -10.08389623 1.9977901 -8.125 1.5 C-7.03445313 1.2215625 -5.94390625 0.943125 -4.8203125 0.65625 C-2 0 -2 0 0 0 Z " fill="#E6C99F" transform="translate(347,288)"/>
<path d="M0 0 C5.57142857 5.14285714 5.57142857 5.14285714 6 9 C5.401875 8.814375 4.80375 8.62875 4.1875 8.4375 C1.83591238 7.77906313 1.83591238 7.77906313 -1 9 C-0.67 6.03 -0.34 3.06 0 0 Z " fill="#DBA85C" transform="translate(152,254)"/>
<path d="M0 0 C0.86625 0.2784375 0.86625 0.2784375 1.75 0.5625 C4.20692525 1.04023546 5.64397534 0.75729364 8 0 C6.95125002 2.62187494 6.35068687 3.79371361 3.875 5.25 C3.25625 5.4975 2.6375 5.745 2 6 C1.01 5.01 0.02 4.02 -1 3 C-0.67 2.01 -0.34 1.02 0 0 Z " fill="#434A4D" transform="translate(399,257)"/>
<path d="M0 0 C1.98 0 3.96 0 6 0 C4.28213877 2.0964688 3.29422076 2.92789656 0.625 3.58203125 C-0.24125 3.65808594 -1.1075 3.73414063 -2 3.8125 C-3.299375 3.94591797 -3.299375 3.94591797 -4.625 4.08203125 C-7 4 -7 4 -10 2 C-6.7 2 -3.4 2 0 2 C0 1.34 0 0.68 0 0 Z " fill="#DFB778" transform="translate(180,279)"/>
<path d="M0 0 C-0.875 6.75 -0.875 6.75 -2 9 C-2.99 9 -3.98 9 -5 9 C-4.6875 5.625 -4.6875 5.625 -4 2 C-1 0 -1 0 0 0 Z " fill="#DCA13A" transform="translate(155,269)"/>
<path d="M0 0 C0.33 0.99 0.66 1.98 1 3 C-0.375 5.5625 -0.375 5.5625 -2 8 C-2.33 8.66 -2.66 9.32 -3 10 C-3.66 10 -4.32 10 -5 10 C-5.66 8.35 -6.32 6.7 -7 5 C-6.21625 4.731875 -5.4325 4.46375 -4.625 4.1875 C-1.71885077 3.15185568 -1.71885077 3.15185568 0 0 Z " fill="#42464A" transform="translate(115,264)"/>
<path d="M0 0 C0 3 0 6 0 9 C-2.97 8.67 -5.94 8.34 -9 8 C-9 7.67 -9 7.34 -9 7 C-7.35 7 -5.7 7 -4 7 C-3.8453125 5.824375 -3.8453125 5.824375 -3.6875 4.625 C-3 2 -3 2 0 0 Z " fill="#72787A" transform="translate(399,252)"/>
<path d="M0 0 C0.33 0 0.66 0 1 0 C1.20625 1.27875 1.4125 2.5575 1.625 3.875 C2.08483533 6.07813968 2.08483533 6.07813968 3 8 C5.99428144 9.61147442 5.99428144 9.61147442 9 10 C9 10.33 9 10.66 9 11 C4.545 11.495 4.545 11.495 0 12 C0 8.04 0 4.08 0 0 Z " fill="#E9C578" transform="translate(135,264)"/>
<path d="M0 0 C2.31 0 4.62 0 7 0 C7.66 1.32 8.32 2.64 9 4 C8.01 4.66 7.02 5.32 6 6 C4.35 4.35 2.7 2.7 1 1 C0.67 1.99 0.34 2.98 0 4 C0 2.68 0 1.36 0 0 Z " fill="#787A7A" transform="translate(147,216)"/>
<path d="M0 0 C0.33 0 0.66 0 1 0 C1 3.63 1 7.26 1 11 C-0.32 10.67 -1.64 10.34 -3 10 C-2.39009109 6.44219804 -1.4216319 3.3171411 0 0 Z " fill="#6D7476" transform="translate(374,271)"/>
<path d="M0 0 C0.66 0 1.32 0 2 0 C2 1.65 2 3.3 2 5 C2.66 5 3.32 5 4 5 C4 6.98 4 8.96 4 11 C4.66 11 5.32 11 6 11 C6.33 11.99 6.66 12.98 7 14 C6.34 14 5.68 14 5 14 C5 13.34 5 12.68 5 12 C4.34 12 3.68 12 3 12 C2.49440092 10.56445975 1.9957251 9.1264798 1.5 7.6875 C1.2215625 6.88699219 0.943125 6.08648437 0.65625 5.26171875 C0 3 0 3 0 0 Z " fill="#E6BE81" transform="translate(159,265)"/>
<path d="M0 0 C0.33 0 0.66 0 1 0 C1 2.31 1 4.62 1 7 C0.34 7 -0.32 7 -1 7 C-1.66 8.32 -2.32 9.64 -3 11 C-3.33 9.02 -3.66 7.04 -4 5 C-2.68 4.67 -1.36 4.34 0 4 C0 2.68 0 1.36 0 0 Z M-6 6 C-5.01 6.495 -5.01 6.495 -4 7 C-4.66 7.66 -5.32 8.32 -6 9 C-6 8.01 -6 7.02 -6 6 Z " fill="#DAA34D" transform="translate(158,263)"/>
<path d="M0 0 C2.27816275 0.7749341 4.50945602 1.60582803 6.73046875 2.53125 C6.40046875 3.19125 6.07046875 3.85125 5.73046875 4.53125 C1.70054093 3.97812265 -2.28976049 3.3754438 -6.26953125 2.53125 C-4.26322956 0.17602628 -3.09030745 -0.63827348 0 0 Z " fill="#E2C999" transform="translate(212.26953125,231.46875)"/>
<path d="M0 0 C1.79158489 -0.02696365 3.58328473 -0.04637917 5.375 -0.0625 C6.37273437 -0.07410156 7.37046875 -0.08570313 8.3984375 -0.09765625 C11 0 11 0 13 1 C12.67 1.99 12.34 2.98 12 4 C6.06 2.515 6.06 2.515 0 1 C0 0.67 0 0.34 0 0 Z " fill="#DDAB50" transform="translate(167,215)"/>
<path d="M0 0 C-0.75 2.4375 -0.75 2.4375 -2 5 C-4.125 5.8125 -4.125 5.8125 -6 6 C-6.66 5.01 -7.32 4.02 -8 3 C-3.375 0 -3.375 0 0 0 Z " fill="#3D464B" transform="translate(393,275)"/>
<path d="M0 0 C1.21236328 0.01353516 1.21236328 0.01353516 2.44921875 0.02734375 C3.37154297 0.04474609 3.37154297 0.04474609 4.3125 0.0625 C4.3125 0.3925 4.3125 0.7225 4.3125 1.0625 C3.64863281 1.17207031 2.98476563 1.28164062 2.30078125 1.39453125 C-2.68941905 2.29058182 -6.39704218 3.24688706 -10.6875 6.0625 C-11.3475 5.7325 -12.0075 5.4025 -12.6875 5.0625 C-8.37302626 1.44767065 -5.63913023 -0.08172653 0 0 Z " fill="#787C7E" transform="translate(298.6875,250.9375)"/>
<path d="M0 0 C3.93673644 1.31224548 6.22719294 2.91910327 9 6 C5.7 5.34 2.4 4.68 -1 4 C-0.67 2.68 -0.34 1.36 0 0 Z " fill="#E0B578" transform="translate(172,210)"/>
<path d="M0 0 C0.99 0 1.98 0 3 0 C3 0.99 3 1.98 3 3 C5.31 3 7.62 3 10 3 C10 3.33 10 3.66 10 4 C3.9981863 4.21824777 -1.19233704 3.5056904 -7 2 C-3.98968256 1.06576355 -3.13349732 0.95550089 0 2 C0 1.34 0 0.68 0 0 Z " fill="#DAB571" transform="translate(190,300)"/>
<path d="M0 0 C9.41002278 -0.3690205 9.41002278 -0.3690205 14 2 C13.34 2.66 12.68 3.32 12 4 C9.1796875 3.5390625 9.1796875 3.5390625 5.875 2.625 C4.77929688 2.32851562 3.68359375 2.03203125 2.5546875 1.7265625 C1.71164063 1.48679688 0.86859375 1.24703125 0 1 C0 0.67 0 0.34 0 0 Z " fill="#DDB56E" transform="translate(138,251)"/>
<path d="M0 0 C-3.44833324 2.05257931 -5.31661591 3.0632763 -9.375 2.6875 C-10.24125 2.460625 -11.1075 2.23375 -12 2 C-8.6359265 -1.3640735 -4.38226377 -1.46075459 0 0 Z " fill="#DAB46E" transform="translate(115,229)"/>
<path d="M0 0 C1 2 1 2 1 5 C1.3062434 6.33981486 1.63451555 7.67511887 2 9 C1.01 8.67 0.02 8.34 -1 8 C-1 7.34 -1 6.68 -1 6 C-1.99 6 -2.98 6 -4 6 C-2.84826645 3.53199953 -1.95216435 1.95216435 0 0 Z " fill="#3F484E" transform="translate(402,270)"/>
<path d="M0 0 C4.455 0.99 4.455 0.99 9 2 C9 2.33 9 2.66 9 3 C7.329375 3.433125 7.329375 3.433125 5.625 3.875 C1.99708908 4.69241329 1.99708908 4.69241329 0 7 C0 4.69 0 2.38 0 0 Z " fill="#E8C983" transform="translate(136,257)"/>
<path d="M0 0 C0 0.66 0 1.32 0 2 C-5.2734375 5.22265625 -5.2734375 5.22265625 -7 6 C-7.66 5.67 -8.32 5.34 -9 5 C-3.375 0 -3.375 0 0 0 Z " fill="#DBB569" transform="translate(138,252)"/>
<path d="M0 0 C1.32 0 2.64 0 4 0 C4 1.98 4 3.96 4 6 C2.35 5.67 0.7 5.34 -1 5 C-0.67 3.35 -0.34 1.7 0 0 Z " fill="#4A4B51" transform="translate(155,217)"/>
<path d="M0 0 C2.31 0.33 4.62 0.66 7 1 C7.33 1.99 7.66 2.98 8 4 C5.36 3.67 2.72 3.34 0 3 C0 2.01 0 1.02 0 0 Z " fill="#D6A03B" transform="translate(181,219)"/>
<path d="M0 0 C0.33 0 0.66 0 1 0 C1 3.96 1 7.92 1 12 C0.01 11.34 -0.98 10.68 -2 10 C-2.42905061 6.05273438 -2.08466413 3.38757921 0 0 Z " fill="#E3B970" transform="translate(221,266)"/>
<path d="M0 0 C1.98 0 3.96 0 6 0 C6.33 1.98 6.66 3.96 7 6 C6.01 6.33 5.02 6.66 4 7 C4 5.02 4 3.04 4 1 C2.68 0.67 1.36 0.34 0 0 Z " fill="#878A89" transform="translate(155,216)"/>
<path d="M0 0 C2.7839183 1.39195915 2.97898997 3.15575779 4 6 C3.01 6.66 2.02 7.32 1 8 C0 7 0 7 -0.0625 3.4375 C-0.041875 2.303125 -0.02125 1.16875 0 0 Z " fill="#41474B" transform="translate(366,259)"/>
<path d="M0 0 C2.31 0 4.62 0 7 0 C6.67 0.99 6.34 1.98 6 3 C4.824375 2.9690625 4.824375 2.9690625 3.625 2.9375 C1.01885039 2.81315937 1.01885039 2.81315937 -1 4 C-0.67 2.68 -0.34 1.36 0 0 Z " fill="#E1C583" transform="translate(205,258)"/>
<path d="M0 0 C3 1 3 1 4.1875 3.0625 C4.455625 3.701875 4.72375 4.34125 5 5 C3.02 5 1.04 5 -1 5 C-0.67 3.35 -0.34 1.7 0 0 Z " fill="#47504D" transform="translate(148,217)"/>
<path d="M0 0 C3.64553172 1.2808625 5.16671013 2.16671013 8 5 C4.7 4.34 1.4 3.68 -2 3 C-1.34 2.01 -0.68 1.02 0 0 Z " fill="#E5C48B" transform="translate(153,198)"/>
<path d="M0 0 C1.98 0 3.96 0 6 0 C6 0.99 6 1.98 6 3 C4.02 3 2.04 3 0 3 C0 2.01 0 1.02 0 0 Z " fill="#DAAB5D" transform="translate(326,293)"/>
<path d="M0 0 C0.33 0.66 0.66 1.32 1 2 C-0.32 3.32 -1.64 4.64 -3 6 C-3.66 5.67 -4.32 5.34 -5 5 C-3.768606 2.53721199 -2.21935077 1.57502313 0 0 Z M-8 4 C-7.01 4.33 -6.02 4.66 -5 5 C-5.99 5 -6.98 5 -8 5 C-8 4.67 -8 4.34 -8 4 Z " fill="#606569" transform="translate(407,258)"/>
<path d="M0 0 C0.33 0 0.66 0 1 0 C1 1.98 1 3.96 1 6 C-0.65 6.33 -2.3 6.66 -4 7 C-2.68 4.69 -1.36 2.38 0 0 Z " fill="#E4C57B" transform="translate(163,256)"/>
<path d="M0 0 C6.75 1.75 6.75 1.75 9 4 C7.02 4 5.04 4 3 4 C3 3.34 3 2.68 3 2 C2.01 2 1.02 2 0 2 C0 1.34 0 0.68 0 0 Z " fill="#E4BD7F" transform="translate(265,241)"/>
<path d="M0 0 C2.64 0.33 5.28 0.66 8 1 C8 1.66 8 2.32 8 3 C5.69 3 3.38 3 1 3 C0.67 2.01 0.34 1.02 0 0 Z " fill="#D6A344" transform="translate(121,207)"/>
<path d="M0 0 C1.98 0.99 3.96 1.98 6 3 C6 3.66 6 4.32 6 5 C4.35 5 2.7 5 1 5 C0.67 3.35 0.34 1.7 0 0 Z " fill="#D4A143" transform="translate(156,201)"/>
<path d="M0 0 C0.66 1.32 1.32 2.64 2 4 C-1 5 -1 5 -4 5 C-3.6875 3.0625 -3.6875 3.0625 -3 1 C-2.01 0.67 -1.02 0.34 0 0 Z " fill="#646B69" transform="translate(288,256)"/>
<path d="M0 0 C0.99 0.495 0.99 0.495 2 1 C1.67 1.66 1.34 2.32 1 3 C1.66 3 2.32 3 3 3 C3.33 3.99 3.66 4.98 4 6 C3.34 6.66 2.68 7.32 2 8 C1.34 7.67 0.68 7.34 0 7 C0 4.69 0 2.38 0 0 Z " fill="#42484C" transform="translate(116,250)"/>
</svg>
